<svg width="68" height="68" viewBox="0 0 68 68" fill="none" xmlns="http://www.w3.org/2000/svg">
<path d="M4.25 19.125V52.0625C4.25158 53.471 4.8118 54.8213 5.80775 55.8173C6.80369 56.8132 8.15403 57.3734 9.5625 57.375H24.1392L22.3442 64.5548C22.3051 64.7115 22.3022 64.875 22.3356 65.0329C22.3691 65.1909 22.4382 65.3391 22.5376 65.4664C22.6369 65.5936 22.764 65.6966 22.9091 65.7674C23.0542 65.8382 23.2135 65.875 23.375 65.875H44.625C44.7865 65.875 44.9458 65.8382 45.0909 65.7674C45.236 65.6966 45.3631 65.5936 45.4624 65.4664C45.5618 65.3391 45.6309 65.1909 45.6644 65.0329C45.6979 64.875 45.6949 64.7115 45.6558 64.5548L43.8608 57.375H58.4375C59.846 57.3734 61.1963 56.8132 62.1923 55.8173C63.1882 54.8213 63.7484 53.471 63.75 52.0625V19.125H63.7471C64.4396 18.2068 64.8137 17.0876 64.8125 15.9375V13.8125H64.8117C64.812 13.564 64.7252 13.3233 64.5663 13.1322L59.5 7.05234V5.3125C59.4991 4.46741 59.1629 3.65721 58.5654 3.05965C57.9678 2.46208 57.1576 2.12595 56.3125 2.125H11.6875C10.8424 2.12595 10.0322 2.46208 9.43465 3.05965C8.83708 3.65721 8.50095 4.46741 8.5 5.3125V7.05234L3.43374 13.1322C3.27483 13.3233 3.18797 13.564 3.1883 13.8125H3.1875V15.9375C3.1863 17.0876 3.56037 18.2068 4.25292 19.125H4.25ZM43.2642 63.75H24.7358L26.3296 57.375H41.6705L43.2642 63.75ZM61.625 52.0625C61.6241 52.9076 61.2879 53.7178 60.6904 54.3154C60.0928 54.9129 59.2826 55.2491 58.4375 55.25H9.5625C8.71742 55.2491 7.90722 54.9129 7.30965 54.3154C6.71208 53.7178 6.37595 52.9076 6.375 52.0625V48.875H61.625V52.0625ZM28.6875 31.875H29.75V32.9375C29.75 33.2193 29.8619 33.4895 30.0612 33.6888C30.2605 33.8881 30.5307 34 30.8125 34C31.0943 34 31.3645 33.8881 31.5638 33.6888C31.7631 33.4895 31.875 33.2193 31.875 32.9375V31.875H36.125V32.9375C36.125 33.2193 36.2369 33.4895 36.4362 33.6888C36.6355 33.8881 36.9057 34 37.1875 34C37.4693 34 37.7396 33.8881 37.9388 33.6888C38.1381 33.4895 38.25 33.2193 38.25 32.9375V31.875H39.4371L41.2965 46.75H26.7036L28.5629 31.875H28.6875ZM36.125 29.75H31.875V27.625C31.875 27.0614 32.0989 26.5209 32.4974 26.1224C32.8959 25.7239 33.4364 25.5 34 25.5C34.5636 25.5 35.1041 25.7239 35.5026 26.1224C35.9011 26.5209 36.125 27.0614 36.125 27.625V29.75ZM43.4379 46.75L41.8442 34H45.6875V35.0625C45.6875 35.3443 45.7994 35.6145 45.9987 35.8138C46.198 36.0131 46.4682 36.125 46.75 36.125C47.0318 36.125 47.3021 36.0131 47.5013 35.8138C47.7006 35.6145 47.8125 35.3443 47.8125 35.0625V34H49.0161L50.8374 46.75H43.4379ZM41.5786 31.875L41.5107 31.3313C41.6425 30.8325 41.9515 30.3987 42.3797 30.1111C42.808 29.8234 43.3264 29.7015 43.838 29.7681C44.3496 29.8347 44.8195 30.0853 45.1598 30.473C45.5002 30.8607 45.6878 31.3591 45.6875 31.875H41.5786ZM26.4215 31.875H22.3125C22.3123 31.3591 22.4998 30.8607 22.8402 30.473C23.1806 30.0853 23.6504 29.8347 24.162 29.7681C24.6736 29.7015 25.192 29.8234 25.6203 30.1111C26.0486 30.3987 26.3575 30.8325 26.4893 31.3313L26.4215 31.875ZM20.1875 35.0625C20.1875 35.3443 20.2994 35.6145 20.4987 35.8138C20.698 36.0131 20.9682 36.125 21.25 36.125C21.5318 36.125 21.802 36.0131 22.0013 35.8138C22.2006 35.6145 22.3125 35.3443 22.3125 35.0625V34H26.1558L24.5621 46.75H17.1626L18.984 34H20.1875V35.0625ZM52.9841 46.75L50.9894 32.7873C50.9532 32.5341 50.8269 32.3024 50.6337 32.1348C50.4405 31.9672 50.1933 31.875 49.9375 31.875H47.8125C47.8128 30.9396 47.5044 30.0302 46.9351 29.288C46.3658 28.5457 45.5674 28.0121 44.6639 27.77C43.7603 27.5278 42.8021 27.5906 41.9379 27.9486C41.0737 28.3066 40.3518 28.9398 39.8843 29.75H38.25V27.625C38.25 26.4978 37.8022 25.4168 37.0052 24.6198C36.2082 23.8228 35.1272 23.375 34 23.375C32.8728 23.375 31.7918 23.8228 30.9948 24.6198C30.1978 25.4168 29.75 26.4978 29.75 27.625V29.75H28.1164C27.649 28.9395 26.9271 28.3059 26.0627 27.9477C25.1984 27.5895 24.24 27.5266 23.3362 27.7688C22.4325 28.011 21.634 28.5448 21.0646 29.2872C20.4953 30.0297 20.187 30.9394 20.1875 31.875H18.0625C17.8067 31.875 17.5595 31.9672 17.3663 32.1348C17.1731 32.3024 17.0468 32.5341 17.0106 32.7873L15.0159 46.75H6.375V20.8051C7.4717 21.285 8.69851 21.3799 9.85594 21.0741C11.0134 20.7684 12.0333 20.0802 12.75 19.1213C13.2442 19.7821 13.8856 20.3185 14.6233 20.6881C15.3611 21.0576 16.1749 21.25 17 21.25C17.8251 21.25 18.6389 21.0576 19.3767 20.6881C20.1144 20.3185 20.7559 19.7821 21.25 19.1213C21.7442 19.7821 22.3856 20.3185 23.1233 20.6881C23.8611 21.0576 24.6749 21.25 25.5 21.25C26.3251 21.25 27.1389 21.0576 27.8767 20.6881C28.6144 20.3185 29.2559 19.7821 29.75 19.1213C30.2442 19.7821 30.8856 20.3185 31.6234 20.6881C32.3611 21.0576 33.1749 21.25 34 21.25C34.8251 21.25 35.6389 21.0576 36.3767 20.6881C37.1144 20.3185 37.7559 19.7821 38.25 19.1213C38.7442 19.7821 39.3856 20.3185 40.1234 20.6881C40.8611 21.0576 41.6749 21.25 42.5 21.25C43.3251 21.25 44.1389 21.0576 44.8767 20.6881C45.6144 20.3185 46.2559 19.7821 46.75 19.1213C47.2442 19.7821 47.8856 20.3185 48.6234 20.6881C49.3611 21.0576 50.1749 21.25 51 21.25C51.8251 21.25 52.6389 21.0576 53.3767 20.6881C54.1144 20.3185 54.7559 19.7821 55.25 19.1213C55.9667 20.0802 56.9866 20.7684 58.1441 21.0741C59.3015 21.3799 60.5283 21.285 61.625 20.8051V46.75H52.9841ZM5.3125 14.875H11.6875V15.9375C11.6875 16.7829 11.3517 17.5936 10.7539 18.1914C10.1561 18.7892 9.34538 19.125 8.5 19.125C7.65463 19.125 6.84387 18.7892 6.2461 18.1914C5.64833 17.5936 5.3125 16.7829 5.3125 15.9375V14.875ZM56.3125 14.875H62.6875V15.9375C62.6875 16.7829 62.3517 17.5936 61.7539 18.1914C61.1561 18.7892 60.3454 19.125 59.5 19.125C58.6546 19.125 57.8439 18.7892 57.2461 18.1914C56.6483 17.5936 56.3125 16.7829 56.3125 15.9375V14.875ZM47.8125 14.875H54.1875V15.9375C54.1875 16.7829 53.8517 17.5936 53.2539 18.1914C52.6561 18.7892 51.8454 19.125 51 19.125C50.1546 19.125 49.3439 18.7892 48.7461 18.1914C48.1483 17.5936 47.8125 16.7829 47.8125 15.9375V14.875ZM39.3125 14.875H45.6875V15.9375C45.6875 16.7829 45.3517 17.5936 44.7539 18.1914C44.1561 18.7892 43.3454 19.125 42.5 19.125C41.6546 19.125 40.8439 18.7892 40.2461 18.1914C39.6483 17.5936 39.3125 16.7829 39.3125 15.9375V14.875ZM30.8125 14.875H37.1875V15.9375C37.1875 16.7829 36.8517 17.5936 36.2539 18.1914C35.6561 18.7892 34.8454 19.125 34 19.125C33.1546 19.125 32.3439 18.7892 31.7461 18.1914C31.1483 17.5936 30.8125 16.7829 30.8125 15.9375V14.875ZM22.3125 14.875H28.6875V15.9375C28.6875 16.7829 28.3517 17.5936 27.7539 18.1914C27.1561 18.7892 26.3454 19.125 25.5 19.125C24.6546 19.125 23.8439 18.7892 23.2461 18.1914C22.6483 17.5936 22.3125 16.7829 22.3125 15.9375V14.875ZM13.8125 14.875H20.1875V15.9375C20.1875 16.7829 19.8517 17.5936 19.2539 18.1914C18.6561 18.7892 17.8454 19.125 17 19.125C16.1546 19.125 15.3439 18.7892 14.7461 18.1914C14.1483 17.5936 13.8125 16.7829 13.8125 15.9375V14.875ZM11.6875 4.25H56.3125C56.5942 4.25032 56.8643 4.36236 57.0635 4.56155C57.2627 4.76074 57.3747 5.0308 57.375 5.3125V6.375H10.625V5.3125C10.6253 5.0308 10.7374 4.76074 10.9366 4.56155C11.1357 4.36236 11.4058 4.25032 11.6875 4.25ZM10.0602 8.5H57.9399L61.4816 12.75H6.51844L10.0602 8.5Z" fill="#0F6CB2"/>
<path d="M46.75 40.375C47.3368 40.375 47.8125 39.8993 47.8125 39.3125C47.8125 38.7257 47.3368 38.25 46.75 38.25C46.1632 38.25 45.6875 38.7257 45.6875 39.3125C45.6875 39.8993 46.1632 40.375 46.75 40.375Z" fill="#0F6CB2"/>
<path d="M37.1875 38.25C37.7743 38.25 38.25 37.7743 38.25 37.1875C38.25 36.6007 37.7743 36.125 37.1875 36.125C36.6007 36.125 36.125 36.6007 36.125 37.1875C36.125 37.7743 36.6007 38.25 37.1875 38.25Z" fill="#0F6CB2"/>
<path d="M30.8125 38.25C31.3993 38.25 31.875 37.7743 31.875 37.1875C31.875 36.6007 31.3993 36.125 30.8125 36.125C30.2257 36.125 29.75 36.6007 29.75 37.1875C29.75 37.7743 30.2257 38.25 30.8125 38.25Z" fill="#0F6CB2"/>
<path d="M21.25 40.375C21.8368 40.375 22.3125 39.8993 22.3125 39.3125C22.3125 38.7257 21.8368 38.25 21.25 38.25C20.6632 38.25 20.1875 38.7257 20.1875 39.3125C20.1875 39.8993 20.6632 40.375 21.25 40.375Z" fill="#0F6CB2"/>
<path d="M35.0625 51H32.9375C32.6557 51 32.3855 51.1119 32.1862 51.3112C31.9869 51.5105 31.875 51.7807 31.875 52.0625C31.875 52.3443 31.9869 52.6145 32.1862 52.8138C32.3855 53.0131 32.6557 53.125 32.9375 53.125H35.0625C35.3443 53.125 35.6145 53.0131 35.8138 52.8138C36.0131 52.6145 36.125 52.3443 36.125 52.0625C36.125 51.7807 36.0131 51.5105 35.8138 51.3112C35.6145 51.1119 35.3443 51 35.0625 51Z" fill="#0F6CB2"/>
</svg>
