<svg width="76" height="78" viewBox="0 0 76 78" fill="none" xmlns="http://www.w3.org/2000/svg">
<path d="M3.5625 55.5337H7.5335C7.15316 56.6226 7.03627 57.788 7.19264 58.9321C7.34901 60.0763 7.77407 61.1657 8.43214 62.1089C9.0902 63.052 9.96205 63.8215 10.9745 64.3525C11.9869 64.8836 13.1103 65.1608 14.2503 65.1608C15.3903 65.1608 16.5137 64.8836 17.5261 64.3525C18.5385 63.8215 19.4104 63.052 20.0685 62.1089C20.7265 61.1657 21.1516 60.0763 21.308 58.9321C21.4643 57.788 21.3474 56.6226 20.9671 55.5337H55.0335C54.6532 56.6226 54.5363 57.788 54.6926 58.9321C54.849 60.0763 55.2741 61.1657 55.9321 62.1089C56.5902 63.052 57.462 63.8215 58.4744 64.3525C59.4869 64.8836 60.6103 65.1608 61.7503 65.1608C62.8903 65.1608 64.0137 64.8836 65.0261 64.3525C66.0385 63.8215 66.9104 63.052 67.5685 62.1089C68.2265 61.1657 68.6516 60.0763 68.808 58.9321C68.9643 57.788 68.8474 56.6226 68.4671 55.5337H72.4375C72.7524 55.5337 73.0545 55.4069 73.2772 55.1813C73.4999 54.9557 73.625 54.6497 73.625 54.3306V15.8306C73.625 15.5115 73.4999 15.2055 73.2772 14.9798C73.0545 14.7542 72.7524 14.6274 72.4375 14.6274H24.9375C24.6226 14.6274 24.3205 14.7542 24.0978 14.9798C23.8751 15.2055 23.75 15.5115 23.75 15.8306V19.4399H17.9609C17.7136 19.44 17.4724 19.5182 17.2711 19.6638C17.0698 19.8094 16.9184 20.0151 16.838 20.2521L12.0168 34.4622C11.651 34.6375 11.3041 34.8505 10.9814 35.0977L2.84555 41.3404C2.69936 41.4526 2.58081 41.5975 2.49917 41.7639C2.41753 41.9303 2.37503 42.1135 2.375 42.2993V54.3306C2.375 54.6497 2.50011 54.9557 2.72281 55.1813C2.94551 55.4069 3.24756 55.5337 3.5625 55.5337ZM14.25 62.7524C13.3105 62.7524 12.3922 62.4702 11.611 61.9414C10.8299 61.4126 10.2211 60.661 9.86157 59.7816C9.50206 58.9022 9.40799 57.9346 9.59127 57.0011C9.77455 56.0675 10.2269 55.21 10.8912 54.537C11.5555 53.864 12.4019 53.4056 13.3233 53.2199C14.2447 53.0342 15.1998 53.1295 16.0677 53.4938C16.9357 53.858 17.6775 54.4748 18.1995 55.2663C18.7214 56.0577 19 56.9881 19 57.9399C18.9986 59.2159 18.4977 60.4391 17.6072 61.3413C16.7167 62.2435 15.5093 62.751 14.25 62.7524ZM61.75 62.7524C60.8105 62.7524 59.8922 62.4702 59.111 61.9414C58.3299 61.4126 57.7211 60.661 57.3616 59.7816C57.0021 58.9022 56.908 57.9346 57.0913 57.0011C57.2745 56.0675 57.7269 55.21 58.3912 54.537C59.0555 53.864 59.9019 53.4056 60.8233 53.2199C61.7447 53.0342 62.6998 53.1295 63.5677 53.4938C64.4357 53.858 65.1775 54.4748 65.6995 55.2663C66.2214 56.0577 66.5 56.9881 66.5 57.9399C66.4986 59.2159 65.9977 60.4391 65.1072 61.3413C64.2167 62.2435 63.0093 62.751 61.75 62.7524ZM71.25 53.1274H67.055C66.3878 52.3705 65.5704 51.7649 64.6562 51.3502C63.742 50.9356 62.7516 50.7212 61.75 50.7212C60.7484 50.7212 59.758 50.9356 58.8438 51.3502C57.9296 51.7649 57.1122 52.3705 56.445 53.1274H26.125V48.3149H71.25V53.1274ZM26.125 17.0337H71.25V45.9087H26.125V17.0337ZM18.8084 21.8462H23.75V33.8774H14.7263L18.8084 21.8462ZM12.4155 37.0156C13.0352 36.5421 13.7899 36.2852 14.5662 36.2837H23.75V53.1274H19.555C18.8878 52.3705 18.0704 51.7649 17.1562 51.3502C16.242 50.9356 15.2516 50.7212 14.25 50.7212C13.2484 50.7212 12.258 50.9356 11.3438 51.3502C10.4296 51.7649 9.61216 52.3705 8.94499 53.1274H4.75V48.3149H10.6875C11.0024 48.3149 11.3045 48.1882 11.5272 47.9626C11.7499 47.7369 11.875 47.4309 11.875 47.1118V42.2993C11.875 41.9802 11.7499 41.6742 11.5272 41.4486C11.3045 41.2229 11.0024 41.0962 10.6875 41.0962H7.09739L12.4155 37.0156ZM9.5 43.5024V45.9087H4.75V43.5024H9.5Z" fill="#0F6CB2"/>
<path d="M48.6875 41.0962H41.5625C41.2476 41.0962 40.9455 41.2229 40.7228 41.4486C40.5001 41.6742 40.375 41.9802 40.375 42.2993C40.375 42.6184 40.5001 42.9244 40.7228 43.1501C40.9455 43.3757 41.2476 43.5024 41.5625 43.5024H48.6875C49.0024 43.5024 49.3045 43.3757 49.5272 43.1501C49.7499 42.9244 49.875 42.6184 49.875 42.2993C49.875 41.9802 49.7499 41.6742 49.5272 41.4486C49.3045 41.2229 49.0024 41.0962 48.6875 41.0962Z" fill="#0F6CB2"/>
<path d="M55.8125 41.0962H53.4375C53.1226 41.0962 52.8205 41.2229 52.5978 41.4486C52.3751 41.6742 52.25 41.9802 52.25 42.2993C52.25 42.6184 52.3751 42.9244 52.5978 43.1501C52.8205 43.3757 53.1226 43.5024 53.4375 43.5024H55.8125C56.1274 43.5024 56.4295 43.3757 56.6522 43.1501C56.8749 42.9244 57 42.6184 57 42.2993C57 41.9802 56.8749 41.6742 56.6522 41.4486C56.4295 41.2229 56.1274 41.0962 55.8125 41.0962Z" fill="#0F6CB2"/>
<path d="M20.1875 41.0962C20.8433 41.0962 21.375 40.5575 21.375 39.8931C21.375 39.2286 20.8433 38.6899 20.1875 38.6899C19.5317 38.6899 19 39.2286 19 39.8931C19 40.5575 19.5317 41.0962 20.1875 41.0962Z" fill="#0F6CB2"/>
<path d="M39.1875 38.6899H58.1875C58.5024 38.6899 58.8045 38.5632 59.0272 38.3376C59.2499 38.1119 59.375 37.8059 59.375 37.4868V20.6431C59.375 20.324 59.2499 20.018 59.0272 19.7923C58.8045 19.5667 58.5024 19.4399 58.1875 19.4399H39.1875C38.8726 19.4399 38.5705 19.5667 38.3478 19.7923C38.1251 20.018 38 20.324 38 20.6431V37.4868C38 37.8059 38.1251 38.1119 38.3478 38.3376C38.5705 38.5632 38.8726 38.6899 39.1875 38.6899ZM40.375 36.2837V26.6587H45.125V31.4712C45.125 31.7092 45.1946 31.9418 45.3251 32.1396C45.4556 32.3375 45.6411 32.4917 45.8581 32.5828C46.0751 32.6738 46.3138 32.6977 46.5442 32.6512C46.7745 32.6048 46.9861 32.4902 47.1522 32.322L48.6875 30.7663L50.2228 32.322C50.3889 32.4902 50.6005 32.6048 50.8308 32.6512C51.0612 32.6977 51.2999 32.6738 51.5169 32.5828C51.7339 32.4917 51.9194 32.3375 52.0499 32.1396C52.1804 31.9418 52.25 31.7092 52.25 31.4712V26.6587H57V36.2837H40.375ZM47.5 21.8462H49.875V28.5667L49.5272 28.2142C49.4169 28.1025 49.286 28.0138 49.1419 27.9534C48.9979 27.8929 48.8434 27.8618 48.6875 27.8618C48.5316 27.8618 48.3771 27.8929 48.2331 27.9534C48.089 28.0138 47.9581 28.1025 47.8478 28.2142L47.5 28.5667V21.8462ZM57 24.2524H52.25V21.8462H57V24.2524ZM40.375 21.8462H45.125V24.2524H40.375V21.8462Z" fill="#0F6CB2"/>
</svg>
