<svg width="70" height="71" viewBox="0 0 70 71" fill="none" xmlns="http://www.w3.org/2000/svg">
<path d="M3.28125 3.78125V49.7188C3.28125 50.0088 3.39648 50.287 3.6016 50.4921C3.80672 50.6973 4.08492 50.8125 4.375 50.8125H31.1719C31.1718 50.9612 31.2021 51.1084 31.2609 51.245C31.3197 51.3817 31.4057 51.5049 31.5137 51.6071L34.7684 54.6853L33.4868 58.9783C33.4442 59.121 33.4312 59.2709 33.4486 59.4188C33.466 59.5667 33.5134 59.7094 33.5879 59.8384C33.6624 59.9673 33.7625 60.0796 33.8819 60.1685C34.0014 60.2574 34.1377 60.321 34.2826 60.3553L38.6422 61.3884L39.6751 65.7478C39.7094 65.8927 39.773 66.0291 39.8619 66.1485C39.9508 66.268 40.0632 66.3681 40.1921 66.4426C40.3211 66.5171 40.4639 66.5645 40.6118 66.5819C40.7597 66.5992 40.9096 66.5862 41.0523 66.5436L45.3452 65.2622L48.4241 68.5176C48.5264 68.6256 48.6495 68.7117 48.7862 68.7706C48.9228 68.8294 49.07 68.8597 49.2188 68.8597C49.3675 68.8597 49.5147 68.8294 49.6513 68.7706C49.788 68.7117 49.9111 68.6256 50.0134 68.5176L53.0916 65.2629L57.3845 66.5445C57.5272 66.587 57.6771 66.6 57.825 66.5826C57.9729 66.5653 58.1157 66.5179 58.2446 66.4433C58.3735 66.3688 58.4859 66.2688 58.5748 66.1493C58.6637 66.0299 58.7272 65.8935 58.7616 65.7486L59.7946 61.3891L64.154 60.3562C64.299 60.3218 64.4353 60.2582 64.5548 60.1693C64.6743 60.0804 64.7743 59.9681 64.8488 59.8391C64.9234 59.7102 64.9707 59.5674 64.9881 59.4195C65.0055 59.2716 64.9925 59.1217 64.9499 58.979L63.6684 54.686L66.9238 51.6071C67.0319 51.5049 67.118 51.3817 67.1768 51.2451C67.2356 51.1084 67.266 50.9613 67.266 50.8125C67.266 50.6637 67.2356 50.5166 67.1768 50.3799C67.118 50.2433 67.0319 50.1201 66.9238 50.0179L63.6691 46.9397L64.9507 42.6467C64.9933 42.504 65.0063 42.3541 64.9889 42.2062C64.9715 42.0583 64.9241 41.9156 64.8496 41.7866C64.7751 41.6577 64.675 41.5454 64.5556 41.4565C64.4361 41.3676 64.2998 41.304 64.1549 41.2697L59.7953 40.2366L58.7617 35.8769C58.7274 35.732 58.6638 35.5957 58.5749 35.4762C58.486 35.3567 58.3736 35.2566 58.2447 35.1821C58.1158 35.1076 57.973 35.0602 57.8251 35.0429C57.6771 35.0255 57.5272 35.0385 57.3845 35.0811L53.5938 36.2126V3.78125C53.5938 3.49117 53.4785 3.21297 53.2734 3.00785C53.0683 2.80273 52.7901 2.6875 52.5 2.6875H4.375C4.08492 2.6875 3.80672 2.80273 3.6016 3.00785C3.39648 3.21297 3.28125 3.49117 3.28125 3.78125ZM5.46875 48.625V13.625H20.7812V30.0312C20.7813 30.2317 20.8363 30.4283 20.9405 30.5995C21.0446 30.7708 21.1938 30.9101 21.3718 31.0023C21.5497 31.0946 21.7496 31.1361 21.9496 31.1224C22.1496 31.1088 22.3419 31.0404 22.5057 30.9248L28.4375 26.7376L34.3693 30.9248C34.5331 31.0404 34.7254 31.1088 34.9254 31.1224C35.1254 31.1361 35.3253 31.0946 35.5032 31.0023C35.6812 30.9101 35.8304 30.7708 35.9345 30.5995C36.0387 30.4283 36.0938 30.2317 36.0938 30.0312V13.625H51.4062V34.5806L50.0134 33.1074C49.9111 32.9994 49.788 32.9133 49.6513 32.8544C49.5147 32.7956 49.3675 32.7653 49.2188 32.7653C49.07 32.7653 48.9228 32.7956 48.7862 32.8544C48.6495 32.9133 48.5264 32.9994 48.4241 33.1074L45.3459 36.3621L41.053 35.0805C40.9103 35.038 40.7604 35.025 40.6125 35.0424C40.4646 35.0597 40.3218 35.1071 40.1929 35.1817C40.064 35.2562 39.9516 35.3562 39.8627 35.4757C39.7738 35.5951 39.7103 35.7315 39.6759 35.8764L38.6429 40.2359L34.2832 41.2695C34.1383 41.3039 34.0019 41.3674 33.8824 41.4563C33.763 41.5452 33.6629 41.6576 33.5884 41.7866C33.5139 41.9155 33.4665 42.0583 33.4491 42.2062C33.4317 42.3541 33.4447 42.504 33.4873 42.6467L34.7688 46.9397L32.9868 48.625H5.46875ZM22.9688 4.875H33.9062V27.9205L29.0682 24.5052C28.8837 24.375 28.6633 24.3051 28.4375 24.3051C28.2117 24.3051 27.9913 24.375 27.8068 24.5052L22.9688 27.9205V4.875ZM57.8221 41.3972C57.8688 41.5945 57.9695 41.775 58.1129 41.9183C58.2563 42.0617 58.4367 42.1624 58.634 42.2092L62.5229 43.1308L61.38 46.9589C61.3221 47.1529 61.3192 47.3591 61.3716 47.5546C61.4239 47.7501 61.5295 47.9273 61.6766 48.0664L64.5801 50.8125L61.6766 53.5585C61.5295 53.6976 61.4239 53.8747 61.3716 54.0702C61.3192 54.2658 61.3221 54.472 61.38 54.6659L62.5229 58.494L58.634 59.4155C58.4367 59.4623 58.2563 59.563 58.1129 59.7064C57.9695 59.8498 57.8688 60.0302 57.8221 60.2275L56.9004 64.1163L53.0723 62.9735C52.8783 62.9157 52.6722 62.9129 52.4767 62.9652C52.2812 63.0176 52.104 63.1231 51.9649 63.27L49.2188 66.1738L46.4728 63.2703C46.3337 63.1233 46.1565 63.0177 45.961 62.9653C45.7655 62.913 45.5593 62.9159 45.3653 62.9738L41.5372 64.1166L40.6157 60.2278C40.569 60.0305 40.4682 59.85 40.3249 59.7067C40.1815 59.5633 40.0011 59.4626 39.8037 59.4158L35.9149 58.4942L37.0578 54.6661C37.1156 54.4721 37.1186 54.2659 37.0662 54.0704C37.0138 53.8749 36.9083 53.6977 36.7612 53.5586L33.8574 50.8125L36.7609 48.0665C36.908 47.9274 37.0136 47.7503 37.0659 47.5548C37.1183 47.3592 37.1154 47.153 37.0575 46.9591L35.9146 43.131L39.8035 42.2095C40.0008 42.1627 40.1812 42.062 40.3246 41.9186C40.468 41.7752 40.5687 41.5948 40.6154 41.3975L41.5371 37.5087L45.3652 38.6515C45.5592 38.7093 45.7653 38.7122 45.9608 38.6598C46.1563 38.6075 46.3335 38.5019 46.4726 38.355L49.2188 35.4512L51.9647 38.3547C52.1038 38.5017 52.281 38.6073 52.4765 38.6597C52.672 38.712 52.8782 38.7091 53.0722 38.6512L56.9003 37.5084L57.8221 41.3972ZM51.4062 11.4375H36.0938V4.875H51.4062V11.4375ZM20.7812 4.875V11.4375H5.46875V4.875H20.7812Z" fill="#0F6CB2"/>
<path d="M8.75 38.7812C8.45992 38.7812 8.18172 38.8965 7.9766 39.1016C7.77148 39.3067 7.65625 39.5849 7.65625 39.875V42.0625C7.65625 42.3526 7.77148 42.6308 7.9766 42.8359C8.18172 43.041 8.45992 43.1562 8.75 43.1562C9.04008 43.1562 9.31828 43.041 9.5234 42.8359C9.72852 42.6308 9.84375 42.3526 9.84375 42.0625V39.875C9.84375 39.5849 9.72852 39.3067 9.5234 39.1016C9.31828 38.8965 9.04008 38.7812 8.75 38.7812Z" fill="#0F6CB2"/>
<path d="M13.125 38.7812C12.8349 38.7812 12.5567 38.8965 12.3516 39.1016C12.1465 39.3067 12.0312 39.5849 12.0312 39.875V42.0625C12.0312 42.3526 12.1465 42.6308 12.3516 42.8359C12.5567 43.041 12.8349 43.1562 13.125 43.1562C13.4151 43.1562 13.6933 43.041 13.8984 42.8359C14.1035 42.6308 14.2188 42.3526 14.2188 42.0625V39.875C14.2188 39.5849 14.1035 39.3067 13.8984 39.1016C13.6933 38.8965 13.4151 38.7812 13.125 38.7812Z" fill="#0F6CB2"/>
<path d="M17.5 38.7812C17.2099 38.7812 16.9317 38.8965 16.7266 39.1016C16.5215 39.3067 16.4062 39.5849 16.4062 39.875V42.0625C16.4062 42.3526 16.5215 42.6308 16.7266 42.8359C16.9317 43.041 17.2099 43.1562 17.5 43.1562C17.7901 43.1562 18.0683 43.041 18.2734 42.8359C18.4785 42.6308 18.5938 42.3526 18.5938 42.0625V39.875C18.5938 39.5849 18.4785 39.3067 18.2734 39.1016C18.0683 38.8965 17.7901 38.7812 17.5 38.7812Z" fill="#0F6CB2"/>
<path d="M21.875 38.7812C21.5849 38.7812 21.3067 38.8965 21.1016 39.1016C20.8965 39.3067 20.7812 39.5849 20.7812 39.875V42.0625C20.7812 42.3526 20.8965 42.6308 21.1016 42.8359C21.3067 43.041 21.5849 43.1562 21.875 43.1562C22.1651 43.1562 22.4433 43.041 22.6484 42.8359C22.8535 42.6308 22.9688 42.3526 22.9688 42.0625V39.875C22.9688 39.5849 22.8535 39.3067 22.6484 39.1016C22.4433 38.8965 22.1651 38.7812 21.875 38.7812Z" fill="#0F6CB2"/>
<path d="M8.75 46.4375C9.35406 46.4375 9.84375 45.9478 9.84375 45.3438C9.84375 44.7397 9.35406 44.25 8.75 44.25C8.14594 44.25 7.65625 44.7397 7.65625 45.3438C7.65625 45.9478 8.14594 46.4375 8.75 46.4375Z" fill="#0F6CB2"/>
<path d="M13.125 46.4375C13.7291 46.4375 14.2188 45.9478 14.2188 45.3438C14.2188 44.7397 13.7291 44.25 13.125 44.25C12.5209 44.25 12.0312 44.7397 12.0312 45.3438C12.0312 45.9478 12.5209 46.4375 13.125 46.4375Z" fill="#0F6CB2"/>
<path d="M17.5 46.4375C18.1041 46.4375 18.5938 45.9478 18.5938 45.3438C18.5938 44.7397 18.1041 44.25 17.5 44.25C16.8959 44.25 16.4062 44.7397 16.4062 45.3438C16.4062 45.9478 16.8959 46.4375 17.5 46.4375Z" fill="#0F6CB2"/>
<path d="M21.875 46.4375C22.4791 46.4375 22.9688 45.9478 22.9688 45.3438C22.9688 44.7397 22.4791 44.25 21.875 44.25C21.2709 44.25 20.7812 44.7397 20.7812 45.3438C20.7812 45.9478 21.2709 46.4375 21.875 46.4375Z" fill="#0F6CB2"/>
<path d="M38.2812 50.8125C38.2813 52.9757 38.9227 55.0904 40.1245 56.889C41.3264 58.6877 43.0346 60.0896 45.0331 60.9174C47.0317 61.7453 49.2309 61.9619 51.3525 61.5398C53.4742 61.1178 55.4231 60.0761 56.9527 58.5465C58.4824 57.0168 59.5241 55.068 59.9461 52.9463C60.3681 50.8246 60.1515 48.6255 59.3237 46.6269C58.4958 44.6283 57.094 42.9201 55.2953 41.7183C53.4966 40.5165 51.382 39.875 49.2187 39.875C46.319 39.8783 43.5389 41.0317 41.4884 43.0822C39.4379 45.1326 38.2845 47.9127 38.2812 50.8125ZM57.9687 50.8125C57.9687 52.5431 57.4556 54.2348 56.4941 55.6737C55.5326 57.1127 54.1661 58.2342 52.5672 58.8964C50.9684 59.5587 49.209 59.732 47.5117 59.3944C45.8144 59.0567 44.2553 58.2234 43.0316 56.9997C41.8079 55.776 40.9745 54.2169 40.6369 52.5195C40.2993 50.8222 40.4725 49.0629 41.1348 47.464C41.7971 45.8652 42.9186 44.4986 44.3575 43.5371C45.7964 42.5757 47.4882 42.0625 49.2187 42.0625C51.5386 42.0651 53.7627 42.9878 55.4031 44.6282C57.0434 46.2686 57.9661 48.4927 57.9687 50.8125Z" fill="#0F6CB2"/>
<path d="M45.8691 49.8223C45.8691 50.1966 45.9001 50.4668 45.9619 50.6328C46.0238 50.7988 46.1165 50.8818 46.2402 50.8818C46.3639 50.8818 46.4551 50.8005 46.5137 50.6377C46.5755 50.4749 46.6064 50.2031 46.6064 49.8223C46.6064 49.4479 46.5755 49.1777 46.5137 49.0117C46.4551 48.8457 46.3639 48.7627 46.2402 48.7627C46.1133 48.7627 46.0189 48.8473 45.957 49.0166C45.8984 49.1859 45.8691 49.4544 45.8691 49.8223ZM48.0811 49.8027C48.0811 50.5189 47.9199 51.0739 47.5977 51.4678C47.2754 51.8584 46.8164 52.0537 46.2207 52.0537C45.6608 52.0537 45.2165 51.8519 44.8877 51.4482C44.5622 51.0413 44.3994 50.4928 44.3994 49.8027C44.3994 49.0866 44.5589 48.5365 44.8779 48.1523C45.1969 47.765 45.6445 47.5713 46.2207 47.5713C46.7904 47.5713 47.2428 47.7715 47.5781 48.1719C47.9134 48.5723 48.0811 49.1159 48.0811 49.8027ZM51.6406 47.6738L47.6807 54.8125H46.2305L50.1904 47.6738H51.6406ZM51.2988 52.6641C51.2988 53.0384 51.3298 53.3086 51.3916 53.4746C51.4535 53.6406 51.5462 53.7236 51.6699 53.7236C51.8099 53.7236 51.9059 53.6292 51.958 53.4404C52.0133 53.2484 52.041 52.9896 52.041 52.6641C52.041 52.3385 52.0133 52.0814 51.958 51.8926C51.9059 51.7005 51.8099 51.6045 51.6699 51.6045C51.543 51.6045 51.4486 51.6891 51.3867 51.8584C51.3281 52.0277 51.2988 52.2962 51.2988 52.6641ZM53.5107 52.6445C53.5107 53.3574 53.348 53.9108 53.0225 54.3047C52.7002 54.6953 52.2428 54.8906 51.6504 54.8906C51.0905 54.8906 50.6462 54.6888 50.3174 54.2852C49.9919 53.8783 49.8291 53.3314 49.8291 52.6445C49.8291 51.9284 49.9886 51.3783 50.3076 50.9941C50.6266 50.6068 51.0742 50.4131 51.6504 50.4131C52.2201 50.4131 52.6725 50.6133 53.0078 51.0137C53.3431 51.4141 53.5107 51.9577 53.5107 52.6445Z" fill="#0F6CB2"/>
</svg>
