<svg width="78" height="73" viewBox="0 0 78 73" fill="none" xmlns="http://www.w3.org/2000/svg">
<g clip-path="url(#clip0)">
<path d="M70.0213 36.3708L67.9671 29.1266L70.0082 21.8795C70.1121 21.5104 70.0005 21.1167 69.7154 20.8468L64.1151 15.5472L62.0611 8.30295C61.9564 7.93396 61.652 7.64595 61.2627 7.54743L53.6186 5.61236L48.0183 0.3126C47.733 0.0427004 47.3176 -0.0626646 46.9287 0.0368548L39.2873 1.98418L31.6433 0.049259C31.2542 -0.0491197 30.8389 0.0563879 30.554 0.327001L24.9642 5.63617L17.3228 7.58364C16.9336 7.68273 16.63 7.97131 16.5259 8.34045L14.4848 15.5875L8.89482 20.8968C8.60998 21.1672 8.49914 21.561 8.60366 21.93L10.6578 29.1729L9.39276 33.6653C9.23214 34.2359 9.58977 34.8219 10.1916 34.9743C10.7935 35.127 11.4116 34.7875 11.5724 34.2169L12.9155 29.4477C12.9666 29.2663 12.9665 29.0754 12.9151 28.8942L10.9514 21.9707L16.2948 16.8957C16.4348 16.7628 16.5352 16.5974 16.5862 16.4162L18.5375 9.48863L25.8417 7.62713C26.0328 7.57837 26.2073 7.48284 26.3472 7.34996L31.6905 2.2749L38.9974 4.12456C39.1885 4.17304 39.3899 4.17275 39.5812 4.12413L46.8855 2.26264L52.2387 7.32857C52.3788 7.46117 52.5533 7.55641 52.7444 7.60489L60.0514 9.45455L62.0149 16.3793C62.0664 16.5605 62.1673 16.7259 62.3073 16.8585L67.6606 21.9244L65.7094 28.8517C65.6583 29.0331 65.6584 29.224 65.7099 29.4052L67.6735 36.33L62.33 41.4052C62.1901 41.5381 62.0897 41.7035 62.0385 41.8847L60.0874 48.812L52.7835 50.6734C52.5922 50.7221 52.4176 50.8178 52.2778 50.9507L46.9344 56.0257L39.6281 54.1749C39.4364 54.1263 39.2349 54.1265 39.0433 54.1754L31.7394 56.0382L26.3863 50.9722C26.2459 50.8396 26.0715 50.7442 25.8804 50.6959L24.3518 50.3087C24.3507 50.3084 24.3498 50.3079 24.3488 50.3078C24.3477 50.3075 24.3467 50.3074 24.3456 50.3071L18.5736 48.845L16.61 41.9215C16.5584 41.7402 16.4576 41.5749 16.3175 41.4423L12.5141 37.8437C12.073 37.4265 11.3588 37.4272 10.9191 37.8452C10.479 38.2633 10.4798 38.9402 10.9207 39.3574L14.5101 42.7536L16.5641 49.9963C16.6688 50.3651 16.973 50.6531 17.3622 50.7517L22.6752 52.0976L18.1219 68.2049C18.0151 68.5823 18.1342 68.9851 18.4323 69.255C18.7303 69.5249 19.16 69.6194 19.553 69.5008L26.8171 67.3116L31.9531 72.6512C32.1695 72.8762 32.4735 72.9999 32.7866 72.9999C32.8753 72.9999 32.9649 72.9899 33.0532 72.9696C33.4539 72.8772 33.7694 72.5849 33.876 72.2073L38.2925 56.5812L39.3376 56.3148L40.3271 56.5654L44.7485 72.2073C44.8551 72.5847 45.1706 72.877 45.5713 72.9696C45.6597 72.9899 45.7492 72.9999 45.8379 72.9999C46.151 72.9999 46.4549 72.8762 46.6714 72.6512L51.8076 67.3115L59.0719 69.5008C59.4649 69.6194 59.8947 69.5249 60.1926 69.255C60.4907 68.9851 60.6098 68.5824 60.5031 68.2049L58.6743 61.7347C58.5132 61.1644 57.8945 60.8259 57.2928 60.9786C56.6911 61.1315 56.3341 61.7179 56.4953 62.2883L57.7903 66.8705L51.8027 65.0659C51.3832 64.9394 50.9242 65.0559 50.6275 65.3644L46.3937 69.766L42.8426 57.2029L46.9815 58.2512C47.3704 58.3498 47.7861 58.2441 48.0709 57.9735L53.6608 52.6643L53.7677 52.6371L55.178 57.6287C55.3129 58.1067 55.7688 58.4218 56.2667 58.4218C56.3634 58.4218 56.4616 58.4099 56.5592 58.3851C57.1609 58.2323 57.5181 57.646 57.3569 57.0756L55.9459 52.082L61.3019 50.717C61.6911 50.6178 61.9948 50.3293 62.0989 49.9602L64.1399 42.7131L69.7301 37.4038C70.0149 37.1335 70.1258 36.7397 70.0213 36.3708ZM32.2307 69.7658L27.9974 65.3646C27.7005 65.0562 27.2418 64.9397 26.8222 65.066L20.8346 66.8704L24.8547 52.6495L25.0067 52.688L30.6068 57.9876C30.8211 58.1904 31.1088 58.3001 31.4037 58.3001C31.5013 58.3001 31.5998 58.2882 31.6965 58.2635L35.7759 57.2233L32.2307 69.7658Z" fill="#0F6CB2"/>
<path d="M39.3127 8.88574C42.4485 8.88574 45.4685 9.51437 48.2888 10.7541C48.8544 11.0027 49.5246 10.7695 49.7865 10.2338C50.0487 9.69801 49.8029 9.06225 49.2379 8.81388C46.1179 7.44242 42.7788 6.74707 39.3129 6.74707C28.6406 6.74707 19.2643 13.556 16.4938 23.3105C16.4928 23.3138 16.4919 23.3172 16.4908 23.3206C16.4876 23.3318 16.4842 23.3427 16.481 23.3537C15.9509 25.2352 15.682 27.1855 15.682 29.1504C15.682 34.2738 17.4571 39.0948 20.815 43.0915C20.8172 43.0942 20.8197 43.0968 20.8218 43.0994C20.8251 43.1032 20.8284 43.1072 20.8318 43.111C25.3445 48.4767 32.0788 51.5537 39.3127 51.5537C52.3429 51.5537 62.9436 41.5036 62.9436 29.1504C62.9436 22.4672 59.8296 16.1822 54.4002 11.907C53.9211 11.5297 53.2099 11.592 52.8118 12.0464C52.4137 12.5008 52.4796 13.1749 52.9589 13.5523C57.8706 17.4199 60.6877 23.1052 60.6877 29.1505C60.6877 40.3245 51.099 49.4151 39.3127 49.4151C33.5853 49.4151 28.2038 47.2826 24.2128 43.4953H31.0585C31.6816 43.4953 32.1865 43.0165 32.1865 42.426V41.2139C33.2009 41.3435 33.9854 41.5906 34.7359 42.136C35.4283 42.6393 36.2834 42.9164 37.1435 42.9164H49.5224C51.4171 42.9164 52.9584 41.4551 52.9584 39.6589C52.9584 39.0292 52.7689 38.4405 52.4412 37.9416C53.3198 37.3509 53.8941 36.3792 53.8941 35.2828C53.8941 34.6189 53.6836 34.0009 53.3225 33.4853C54.1363 32.889 54.6613 31.9549 54.6613 30.9066C54.6613 30.2458 54.4525 29.6301 54.0943 29.1161C54.9135 28.5203 55.4427 27.5829 55.4427 26.5305C55.4427 24.7343 53.9014 23.273 52.0067 23.273H45.1288C45.9508 20.4386 45.8134 17.4766 44.7196 14.0779C44.3122 12.8118 43.096 11.9612 41.693 11.9612C40.8287 11.9612 39.9916 12.3021 39.3963 12.8963C38.8011 13.4907 38.4853 14.3011 38.5301 15.1197C38.7366 18.8869 36.971 20.1362 34.2983 22.027C33.6269 22.502 32.9088 23.0107 32.1845 23.5952C32.1647 23.0212 31.6688 22.5613 31.0584 22.5613H19.0933C22.031 14.4426 30.1427 8.88574 39.3127 8.88574ZM35.6474 23.7408C38.4266 21.7744 41.052 19.9172 40.7829 15.0086C40.7699 14.7697 40.8583 14.5424 41.0321 14.3687C41.2058 14.1952 41.4405 14.0997 41.6928 14.0997C42.0904 14.0997 42.4478 14.3472 42.5616 14.7018C43.6883 18.2028 43.6738 21.1425 42.5156 23.9533C42.3801 24.2823 42.4248 24.6536 42.6349 24.9453C42.845 25.237 43.1937 25.4115 43.5662 25.4115H52.0064C52.6572 25.4115 53.1866 25.9134 53.1866 26.5304C53.1866 27.1473 52.6572 27.6492 52.0064 27.6492H49.1353C48.5123 27.6492 48.0074 28.1279 48.0074 28.7185C48.0074 29.3091 48.5123 29.7878 49.1353 29.7878H51.225C51.8756 29.7878 52.4051 30.2897 52.4051 30.9065C52.4051 31.5234 51.8756 32.0253 51.225 32.0253H49.1353C48.5123 32.0253 48.0074 32.5041 48.0074 33.0946C48.0074 33.6852 48.5123 34.164 49.1353 34.164H50.4577C51.1085 34.164 51.6378 34.6659 51.6378 35.2828C51.6378 35.8997 51.1085 36.4016 50.4577 36.4016H48.3679C47.7448 36.4016 47.24 36.8804 47.24 37.4709C47.24 38.0615 47.7448 38.5403 48.3679 38.5403H49.522C50.1727 38.5403 50.7021 39.0421 50.7021 39.6591C50.7021 40.276 50.1727 40.7779 49.522 40.7779H37.143C36.7764 40.7779 36.4087 40.6574 36.1079 40.4388C34.8305 39.5101 33.4914 39.1954 32.186 39.0583V26.5408C33.2971 25.4047 34.4903 24.5596 35.6474 23.7408ZM29.9306 26.3748C29.9306 26.3758 29.9305 26.3767 29.9305 26.3775V40.2914C29.9305 40.2924 29.9306 40.2933 29.9306 40.2941V41.3563H22.2503C19.4273 37.8225 17.9377 33.6136 17.9377 29.1502C17.9377 27.6467 18.1135 26.1535 18.457 24.6996H29.9306V26.3748Z" fill="#0F6CB2"/>
</g>
<defs>
<clipPath id="clip0">
<rect width="77" height="73" fill="white" transform="translate(0.812561)"/>
</clipPath>
</defs>
</svg>
