<svg width="69" height="69" viewBox="0 0 69 69" fill="none" xmlns="http://www.w3.org/2000/svg">
<path d="M63.6094 2.15625H18.3113C17.3973 2.18212 16.4997 2.40508 15.6798 2.80986C13.9115 3.69756 12.9375 5.37984 12.9375 7.54688V60.375H5.39063C5.11012 60.3749 4.8406 60.4841 4.63931 60.6794C4.43801 60.8748 4.32078 61.1409 4.3125 61.4213C4.30954 61.5182 4.26008 63.8125 5.80059 65.3992C6.73168 66.3578 8.00171 66.8438 9.57578 66.8438H54.9844V66.8396C59.0802 66.7508 60.2657 63.3132 60.3165 61.483C60.3165 61.4736 60.3165 61.4643 60.3165 61.455L60.3805 19.4062H63.6094C63.8953 19.4062 64.1695 19.2927 64.3717 19.0905C64.5739 18.8883 64.6875 18.6141 64.6875 18.3281V3.23438C64.6875 2.94844 64.5739 2.67421 64.3717 2.47203C64.1695 2.26984 63.8953 2.15625 63.6094 2.15625ZM7.35821 63.9068C6.99775 63.5191 6.74258 63.0455 6.617 62.5312H49.5726C49.6797 63.0716 49.857 63.5956 50.1001 64.09C50.2031 64.2966 50.3196 64.4962 50.4488 64.6875H9.57578C8.59913 64.6875 7.87342 64.4321 7.35821 63.9068ZM58.2243 7.54688L58.1607 61.4303C58.1137 62.0149 57.9531 62.5846 57.6879 63.1076C57.1289 64.1708 56.192 64.6875 54.8239 64.6875C53.4897 64.6875 52.5849 64.1955 52.0579 63.1832C51.7892 62.6441 51.6354 62.0549 51.6063 61.4531C51.6063 61.1672 51.4928 60.893 51.2906 60.6908C51.0884 60.4886 50.8142 60.375 50.5282 60.375H15.0938V7.54688C15.0938 6.20447 15.5839 5.29454 16.5922 4.76518C17.1274 4.49595 17.7129 4.34175 18.3113 4.3125H59.3039C58.6019 5.24457 58.2229 6.38005 58.2243 7.54688ZM60.3805 17.25V7.54688C60.381 6.87905 60.588 6.2277 60.973 5.68202C61.358 5.13634 61.9023 4.72301 62.5313 4.49861V17.25H60.3805Z" fill="#0F6CB2"/>
<path d="M41.3559 20.956C41.528 20.9561 41.6976 20.9149 41.8505 20.8361C42.0034 20.7572 42.1352 20.6429 42.2349 20.5026C42.3346 20.3624 42.3993 20.2003 42.4236 20.03C42.4479 19.8596 42.431 19.6859 42.3745 19.5234L41.0183 15.6274L43.7209 12.6515C43.8613 12.4969 43.9537 12.3049 43.9871 12.0987C44.0204 11.8926 43.9931 11.6812 43.9086 11.4903C43.8241 11.2994 43.6859 11.1371 43.5109 11.0232C43.3359 10.9092 43.1316 10.8486 42.9228 10.8486H39.6464L37.6028 7.09832C37.5101 6.92823 37.3732 6.78627 37.2067 6.68736C37.0401 6.58845 36.85 6.53625 36.6562 6.53625C36.4625 6.53625 36.2724 6.58845 36.1058 6.68736C35.9392 6.78627 35.8024 6.92823 35.7096 7.09832L33.666 10.8486H30.3896C30.1808 10.8486 29.9765 10.9092 29.8015 11.0232C29.6265 11.1371 29.4884 11.2994 29.4039 11.4903C29.3193 11.6812 29.2921 11.8926 29.3254 12.0987C29.3587 12.3049 29.4512 12.4969 29.5915 12.6515L32.2941 15.6274L30.938 19.5234C30.8663 19.7294 30.8587 19.9523 30.9163 20.1626C30.9739 20.373 31.094 20.5609 31.2606 20.7016C31.4273 20.8423 31.6326 20.9292 31.8497 20.9507C32.0667 20.9723 32.2852 20.9275 32.4762 20.8223L36.6562 18.5211L40.8362 20.8223C40.9954 20.9101 41.1742 20.9561 41.3559 20.956ZM38.7712 15.7311L39.4142 17.5774L37.1762 16.3454C37.0169 16.2577 36.838 16.2118 36.6562 16.2118C36.4744 16.2118 36.2956 16.2577 36.1363 16.3454L33.8982 17.5774L34.5412 15.7311C34.6049 15.5481 34.6181 15.3512 34.5793 15.1613C34.5406 14.9714 34.4513 14.7954 34.321 14.6519L32.8251 13.0048H34.3062C34.4999 13.0048 34.6901 12.9526 34.8567 12.8537C35.0233 12.7547 35.1602 12.6127 35.2529 12.4426L36.6562 9.86735L38.0595 12.4426C38.1523 12.6127 38.2891 12.7547 38.4557 12.8537C38.6223 12.9526 38.8125 13.0048 39.0063 13.0048H40.4873L38.9914 14.6519C38.8611 14.7954 38.7719 14.9714 38.7331 15.1613C38.6944 15.3512 38.7075 15.5481 38.7712 15.7311Z" fill="#0F6CB2"/>
<path d="M25.875 25.875H19.4062C19.1203 25.875 18.8461 25.9886 18.6439 26.1908C18.4417 26.393 18.3281 26.6672 18.3281 26.9531V33.4219C18.3281 33.7078 18.4417 33.982 18.6439 34.1842C18.8461 34.3864 19.1203 34.5 19.4062 34.5H25.875C26.1609 34.5 26.4352 34.3864 26.6374 34.1842C26.8395 33.982 26.9531 33.7078 26.9531 33.4219V26.9531C26.9531 26.6672 26.8395 26.393 26.6374 26.1908C26.4352 25.9886 26.1609 25.875 25.875 25.875ZM24.7969 32.3438H20.4844V28.0312H24.7969V32.3438Z" fill="#0F6CB2"/>
<path d="M25.875 36.6562H19.4062C19.1203 36.6562 18.8461 36.7698 18.6439 36.972C18.4417 37.1742 18.3281 37.4484 18.3281 37.7344V44.2031C18.3281 44.4891 18.4417 44.7633 18.6439 44.9655C18.8461 45.1677 19.1203 45.2812 19.4062 45.2812H25.875C26.1609 45.2812 26.4352 45.1677 26.6374 44.9655C26.8395 44.7633 26.9531 44.4891 26.9531 44.2031V37.7344C26.9531 37.4484 26.8395 37.1742 26.6374 36.972C26.4352 36.7698 26.1609 36.6562 25.875 36.6562ZM24.7969 43.125H20.4844V38.8125H24.7969V43.125Z" fill="#0F6CB2"/>
<path d="M25.875 47.4375H19.4062C19.1203 47.4375 18.8461 47.5511 18.6439 47.7533C18.4417 47.9555 18.3281 48.2297 18.3281 48.5156V54.9844C18.3281 55.2703 18.4417 55.5445 18.6439 55.7467C18.8461 55.9489 19.1203 56.0625 19.4062 56.0625H25.875C26.1609 56.0625 26.4352 55.9489 26.6374 55.7467C26.8395 55.5445 26.9531 55.2703 26.9531 54.9844V48.5156C26.9531 48.2297 26.8395 47.9555 26.6374 47.7533C26.4352 47.5511 26.1609 47.4375 25.875 47.4375ZM24.7969 53.9062H20.4844V49.5938H24.7969V53.9062Z" fill="#0F6CB2"/>
<path d="M45.2812 25.875H38.8125C38.5266 25.875 38.2523 25.9886 38.0501 26.1908C37.848 26.393 37.7344 26.6672 37.7344 26.9531V33.4219C37.7344 33.7078 37.848 33.982 38.0501 34.1842C38.2523 34.3864 38.5266 34.5 38.8125 34.5H45.2812C45.5672 34.5 45.8414 34.3864 46.0436 34.1842C46.2458 33.982 46.3594 33.7078 46.3594 33.4219V26.9531C46.3594 26.6672 46.2458 26.393 46.0436 26.1908C45.8414 25.9886 45.5672 25.875 45.2812 25.875ZM44.2031 32.3438H39.8906V28.0312H44.2031V32.3438Z" fill="#0F6CB2"/>
<path d="M45.2812 36.6562H38.8125C38.5266 36.6562 38.2523 36.7698 38.0501 36.972C37.848 37.1742 37.7344 37.4484 37.7344 37.7344V44.2031C37.7344 44.4891 37.848 44.7633 38.0501 44.9655C38.2523 45.1677 38.5266 45.2812 38.8125 45.2812H45.2812C45.5672 45.2812 45.8414 45.1677 46.0436 44.9655C46.2458 44.7633 46.3594 44.4891 46.3594 44.2031V37.7344C46.3594 37.4484 46.2458 37.1742 46.0436 36.972C45.8414 36.7698 45.5672 36.6562 45.2812 36.6562ZM44.2031 43.125H39.8906V38.8125H44.2031V43.125Z" fill="#0F6CB2"/>
<path d="M45.2812 47.4375H38.8125C38.5266 47.4375 38.2523 47.5511 38.0501 47.7533C37.848 47.9555 37.7344 48.2297 37.7344 48.5156V54.9844C37.7344 55.2703 37.848 55.5445 38.0501 55.7467C38.2523 55.9489 38.5266 56.0625 38.8125 56.0625H45.2812C45.5672 56.0625 45.8414 55.9489 46.0436 55.7467C46.2458 55.5445 46.3594 55.2703 46.3594 54.9844V48.5156C46.3594 48.2297 46.2458 47.9555 46.0436 47.7533C45.8414 47.5511 45.5672 47.4375 45.2812 47.4375ZM44.2031 53.9062H39.8906V49.5938H44.2031V53.9062Z" fill="#0F6CB2"/>
<path d="M34.5 26.9531H30.1875C29.9016 26.9531 29.6273 27.0667 29.4251 27.2689C29.223 27.4711 29.1094 27.7453 29.1094 28.0312C29.1094 28.3172 29.223 28.5914 29.4251 28.7936C29.6273 28.9958 29.9016 29.1094 30.1875 29.1094H34.5C34.7859 29.1094 35.0602 28.9958 35.2624 28.7936C35.4645 28.5914 35.5781 28.3172 35.5781 28.0312C35.5781 27.7453 35.4645 27.4711 35.2624 27.2689C35.0602 27.0667 34.7859 26.9531 34.5 26.9531Z" fill="#0F6CB2"/>
<path d="M34.5 31.2656H30.1875C29.9016 31.2656 29.6273 31.3792 29.4251 31.5814C29.223 31.7836 29.1094 32.0578 29.1094 32.3438C29.1094 32.6297 29.223 32.9039 29.4251 33.1061C29.6273 33.3083 29.9016 33.4219 30.1875 33.4219H34.5C34.7859 33.4219 35.0602 33.3083 35.2624 33.1061C35.4645 32.9039 35.5781 32.6297 35.5781 32.3438C35.5781 32.0578 35.4645 31.7836 35.2624 31.5814C35.0602 31.3792 34.7859 31.2656 34.5 31.2656Z" fill="#0F6CB2"/>
<path d="M34.5 37.7344H30.1875C29.9016 37.7344 29.6273 37.848 29.4251 38.0501C29.223 38.2523 29.1094 38.5266 29.1094 38.8125C29.1094 39.0984 29.223 39.3727 29.4251 39.5749C29.6273 39.777 29.9016 39.8906 30.1875 39.8906H34.5C34.7859 39.8906 35.0602 39.777 35.2624 39.5749C35.4645 39.3727 35.5781 39.0984 35.5781 38.8125C35.5781 38.5266 35.4645 38.2523 35.2624 38.0501C35.0602 37.848 34.7859 37.7344 34.5 37.7344Z" fill="#0F6CB2"/>
<path d="M34.5 42.0469H30.1875C29.9016 42.0469 29.6273 42.1605 29.4251 42.3626C29.223 42.5648 29.1094 42.8391 29.1094 43.125C29.1094 43.4109 29.223 43.6852 29.4251 43.8874C29.6273 44.0895 29.9016 44.2031 30.1875 44.2031H34.5C34.7859 44.2031 35.0602 44.0895 35.2624 43.8874C35.4645 43.6852 35.5781 43.4109 35.5781 43.125C35.5781 42.8391 35.4645 42.5648 35.2624 42.3626C35.0602 42.1605 34.7859 42.0469 34.5 42.0469Z" fill="#0F6CB2"/>
<path d="M34.5 48.5156H30.1875C29.9016 48.5156 29.6273 48.6292 29.4251 48.8314C29.223 49.0336 29.1094 49.3078 29.1094 49.5938C29.1094 49.8797 29.223 50.1539 29.4251 50.3561C29.6273 50.5583 29.9016 50.6719 30.1875 50.6719H34.5C34.7859 50.6719 35.0602 50.5583 35.2624 50.3561C35.4645 50.1539 35.5781 49.8797 35.5781 49.5938C35.5781 49.3078 35.4645 49.0336 35.2624 48.8314C35.0602 48.6292 34.7859 48.5156 34.5 48.5156Z" fill="#0F6CB2"/>
<path d="M34.5 52.8281H30.1875C29.9016 52.8281 29.6273 52.9417 29.4251 53.1439C29.223 53.3461 29.1094 53.6203 29.1094 53.9062C29.1094 54.1922 29.223 54.4664 29.4251 54.6686C29.6273 54.8708 29.9016 54.9844 30.1875 54.9844H34.5C34.7859 54.9844 35.0602 54.8708 35.2624 54.6686C35.4645 54.4664 35.5781 54.1922 35.5781 53.9062C35.5781 53.6203 35.4645 53.3461 35.2624 53.1439C35.0602 52.9417 34.7859 52.8281 34.5 52.8281Z" fill="#0F6CB2"/>
<path d="M53.9062 26.9531H49.5938C49.3078 26.9531 49.0336 27.0667 48.8314 27.2689C48.6292 27.4711 48.5156 27.7453 48.5156 28.0312C48.5156 28.3172 48.6292 28.5914 48.8314 28.7936C49.0336 28.9958 49.3078 29.1094 49.5938 29.1094H53.9062C54.1922 29.1094 54.4664 28.9958 54.6686 28.7936C54.8708 28.5914 54.9844 28.3172 54.9844 28.0312C54.9844 27.7453 54.8708 27.4711 54.6686 27.2689C54.4664 27.0667 54.1922 26.9531 53.9062 26.9531Z" fill="#0F6CB2"/>
<path d="M53.9062 31.2656H49.5938C49.3078 31.2656 49.0336 31.3792 48.8314 31.5814C48.6292 31.7836 48.5156 32.0578 48.5156 32.3438C48.5156 32.6297 48.6292 32.9039 48.8314 33.1061C49.0336 33.3083 49.3078 33.4219 49.5938 33.4219H53.9062C54.1922 33.4219 54.4664 33.3083 54.6686 33.1061C54.8708 32.9039 54.9844 32.6297 54.9844 32.3438C54.9844 32.0578 54.8708 31.7836 54.6686 31.5814C54.4664 31.3792 54.1922 31.2656 53.9062 31.2656Z" fill="#0F6CB2"/>
<path d="M53.9062 37.7344H49.5938C49.3078 37.7344 49.0336 37.848 48.8314 38.0501C48.6292 38.2523 48.5156 38.5266 48.5156 38.8125C48.5156 39.0984 48.6292 39.3727 48.8314 39.5749C49.0336 39.777 49.3078 39.8906 49.5938 39.8906H53.9062C54.1922 39.8906 54.4664 39.777 54.6686 39.5749C54.8708 39.3727 54.9844 39.0984 54.9844 38.8125C54.9844 38.5266 54.8708 38.2523 54.6686 38.0501C54.4664 37.848 54.1922 37.7344 53.9062 37.7344Z" fill="#0F6CB2"/>
<path d="M53.9062 42.0469H49.5938C49.3078 42.0469 49.0336 42.1605 48.8314 42.3626C48.6292 42.5648 48.5156 42.8391 48.5156 43.125C48.5156 43.4109 48.6292 43.6852 48.8314 43.8874C49.0336 44.0895 49.3078 44.2031 49.5938 44.2031H53.9062C54.1922 44.2031 54.4664 44.0895 54.6686 43.8874C54.8708 43.6852 54.9844 43.4109 54.9844 43.125C54.9844 42.8391 54.8708 42.5648 54.6686 42.3626C54.4664 42.1605 54.1922 42.0469 53.9062 42.0469Z" fill="#0F6CB2"/>
<path d="M53.9062 48.5156H49.5938C49.3078 48.5156 49.0336 48.6292 48.8314 48.8314C48.6292 49.0336 48.5156 49.3078 48.5156 49.5938C48.5156 49.8797 48.6292 50.1539 48.8314 50.3561C49.0336 50.5583 49.3078 50.6719 49.5938 50.6719H53.9062C54.1922 50.6719 54.4664 50.5583 54.6686 50.3561C54.8708 50.1539 54.9844 49.8797 54.9844 49.5938C54.9844 49.3078 54.8708 49.0336 54.6686 48.8314C54.4664 48.6292 54.1922 48.5156 53.9062 48.5156Z" fill="#0F6CB2"/>
<path d="M53.9062 52.8281H49.5938C49.3078 52.8281 49.0336 52.9417 48.8314 53.1439C48.6292 53.3461 48.5156 53.6203 48.5156 53.9062C48.5156 54.1922 48.6292 54.4664 48.8314 54.6686C49.0336 54.8708 49.3078 54.9844 49.5938 54.9844H53.9062C54.1922 54.9844 54.4664 54.8708 54.6686 54.6686C54.8708 54.4664 54.9844 54.1922 54.9844 53.9062C54.9844 53.6203 54.8708 53.3461 54.6686 53.1439C54.4664 52.9417 54.1922 52.8281 53.9062 52.8281Z" fill="#0F6CB2"/>
</svg>
