<svg width="69" height="70" viewBox="0 0 69 70" fill="none" xmlns="http://www.w3.org/2000/svg">
<path d="M18.5625 39.375H41.9375C43.3735 39.3764 44.8032 39.1778 46.1875 38.7846V40.0574C44.9679 40.2731 43.8809 40.977 43.1639 42.0152C42.3616 43.1565 41.9375 44.7155 41.9375 46.5235V53.086C41.9375 53.2767 41.9859 53.4641 42.078 53.6296L45.125 59.1061V66.7188C45.125 67.0088 45.2369 67.287 45.4362 67.4921C45.6355 67.6973 45.9057 67.8125 46.1875 67.8125H62.125C62.4068 67.8125 62.677 67.6973 62.8763 67.4921C63.0756 67.287 63.1875 67.0088 63.1875 66.7188V59.2949L65.2486 53.4604C65.2909 53.3406 65.3125 53.2141 65.3125 53.0867V39.375C65.3125 38.85 65.1902 38.3327 64.9558 37.8665C64.7214 37.4003 64.3818 36.9988 63.9654 36.6957C63.549 36.3926 63.0681 36.1968 62.563 36.1247C62.0578 36.0525 61.5433 36.1062 61.0625 36.2812V36.0938C61.0627 35.5207 60.9171 34.9576 60.6401 34.4606C60.3631 33.9635 59.9645 33.5498 59.4839 33.2607C59.0033 32.9715 58.4575 32.817 57.9009 32.8126C57.3442 32.8081 56.7962 32.9538 56.3113 33.2352C56.0234 32.773 55.6282 32.3918 55.1614 32.1262C56.7747 29.6574 57.7054 26.7836 57.854 23.8122C58.0026 20.8408 57.3634 17.8837 56.0049 15.2575C54.6464 12.6313 52.6197 10.4348 50.1417 8.90321C47.6638 7.37159 44.8278 6.56249 41.9375 6.5625H18.5625C14.3356 6.5625 10.2818 8.29101 7.29299 11.3678C4.30412 14.4445 2.625 18.6175 2.625 22.9688C2.625 27.32 4.30412 31.493 7.29299 34.5697C10.2818 37.6465 14.3356 39.375 18.5625 39.375ZM57.875 35C58.1567 35.0003 58.4268 35.1157 58.626 35.3207C58.8251 35.5258 58.9372 35.8038 58.9375 36.0938V45.9375C58.9375 46.2276 59.0494 46.5058 59.2487 46.7109C59.448 46.916 59.7182 47.0312 60 47.0312C60.2818 47.0312 60.552 46.916 60.7513 46.7109C60.9506 46.5058 61.0625 46.2276 61.0625 45.9375V39.375C61.0625 39.0849 61.1744 38.8067 61.3737 38.6016C61.573 38.3965 61.8432 38.2812 62.125 38.2812C62.4068 38.2812 62.677 38.3965 62.8763 38.6016C63.0756 38.8067 63.1875 39.0849 63.1875 39.375V52.8932L61.1264 58.7278C61.0841 58.8476 61.0625 58.9741 61.0625 59.1016V65.625H47.25V58.815C47.25 58.6243 47.2016 58.4369 47.1095 58.2714L44.0625 52.7949V46.5235C44.0625 45.3923 44.2939 42.9732 46.1875 42.3171V45.9375C46.1875 46.2276 46.2994 46.5058 46.4987 46.7109C46.698 46.916 46.9682 47.0312 47.25 47.0312C47.5318 47.0312 47.802 46.916 48.0013 46.7109C48.2006 46.5058 48.3125 46.2276 48.3125 45.9375V27.3438C48.3125 27.0537 48.4244 26.7755 48.6237 26.5704C48.823 26.3652 49.0932 26.25 49.375 26.25C49.6568 26.25 49.927 26.3652 50.1263 26.5704C50.3256 26.7755 50.4375 27.0537 50.4375 27.3438V42.2527C50.4375 42.5427 50.5494 42.8209 50.7487 43.0261C50.948 43.2312 51.2182 43.3464 51.5 43.3464C51.7818 43.3464 52.052 43.2312 52.2513 43.0261C52.4506 42.8209 52.5625 42.5427 52.5625 42.2527V35C52.5625 34.7099 52.6744 34.4317 52.8737 34.2266C53.073 34.0215 53.3432 33.9062 53.625 33.9062C53.9068 33.9062 54.177 34.0215 54.3763 34.2266C54.5756 34.4317 54.6875 34.7099 54.6875 35V43.75C54.6875 44.0401 54.7994 44.3183 54.9987 44.5234C55.198 44.7285 55.4682 44.8438 55.75 44.8438C56.0318 44.8438 56.302 44.7285 56.5013 44.5234C56.7006 44.3183 56.8125 44.0401 56.8125 43.75V36.0938C56.8128 35.8038 56.9249 35.5258 57.124 35.3207C57.3232 35.1157 57.5933 35.0003 57.875 35ZM18.5625 8.75H41.9375C44.5403 8.74935 47.0903 9.50593 49.2934 10.9325C51.4966 12.3591 53.2633 14.3976 54.3898 16.8131C55.5162 19.2285 55.9566 21.9224 55.6602 24.5843C55.3638 27.2463 54.3425 29.7677 52.7143 31.8581C52.6634 31.8738 52.6122 31.888 52.5625 31.9062V27.3438C52.5625 26.4735 52.2267 25.6389 51.6289 25.0236C51.0311 24.4082 50.2204 24.0625 49.375 24.0625C48.5296 24.0625 47.7189 24.4082 47.1211 25.0236C46.5233 25.6389 46.1875 26.4735 46.1875 27.3438V36.5002C44.8145 36.957 43.3804 37.1889 41.9375 37.1875H18.5625C14.8992 37.1875 11.3859 35.6895 8.79559 33.0229C6.20524 30.3564 4.75 26.7398 4.75 22.9688C4.75 19.1977 6.20524 15.5811 8.79559 12.9146C11.3859 10.248 14.8992 8.75 18.5625 8.75Z" fill="#0F6CB2"/>
<path d="M36.625 33.9062C36.625 33.492 36.5484 33.0816 36.3992 32.6968C37.0383 32.5176 37.6073 32.1378 38.027 31.6103C38.4468 31.0828 38.6964 30.4338 38.7413 29.7534C38.7862 29.0731 38.6241 28.3953 38.2776 27.8142C37.931 27.2331 37.4171 26.7776 36.8075 26.511L38.7242 16.6451L39.5795 13.125H41.9375C42.2193 13.125 42.4895 13.0098 42.6888 12.8046C42.8881 12.5995 43 12.3213 43 12.0312C43 11.7412 42.8881 11.463 42.6888 11.2579C42.4895 11.0527 42.2193 10.9375 41.9375 10.9375H38.75C38.513 10.9375 38.2829 11.0191 38.0961 11.1692C37.9094 11.3193 37.7767 11.5294 37.7192 11.766L36.858 15.3125H16.4375C16.2803 15.3125 16.125 15.3484 15.983 15.4176C15.8409 15.4868 15.7155 15.5877 15.6158 15.7128C15.5161 15.838 15.4447 15.9843 15.4066 16.1413C15.3685 16.2983 15.3648 16.4621 15.3956 16.6208L17.5206 27.5583C17.5688 27.8062 17.6989 28.0293 17.8889 28.1896C18.0788 28.3499 18.3169 28.4375 18.5625 28.4375H35.5625C35.8443 28.4375 36.1145 28.5527 36.3138 28.7579C36.5131 28.963 36.625 29.2412 36.625 29.5312C36.625 29.8213 36.5131 30.0995 36.3138 30.3046C36.1145 30.5098 35.8443 30.625 35.5625 30.625H18.5625C17.8854 30.6247 17.2258 30.8462 16.6791 31.2574C16.1325 31.6687 15.7272 32.2484 15.5219 32.9126C15.3166 33.5768 15.3221 34.291 15.5374 34.9518C15.7527 35.6126 16.1667 36.1858 16.7195 36.5882C17.2723 36.9907 17.9352 37.2016 18.6122 37.1904C19.2892 37.1791 19.9452 36.9464 20.4851 36.5259C21.0251 36.1053 21.421 35.5188 21.6155 34.8512C21.8101 34.1836 21.7932 33.4696 21.5672 32.8125H30.4328C30.2778 33.2631 30.2203 33.7431 30.2644 34.2189C30.3084 34.6947 30.4529 35.1549 30.6878 35.5672C30.9226 35.9795 31.2422 36.3341 31.624 36.606C32.0059 36.8779 32.4408 37.0607 32.8984 37.1416C33.3561 37.2224 33.8253 37.1993 34.2734 37.074C34.7215 36.9486 35.1375 36.724 35.4925 36.4159C35.8474 36.1077 36.1327 35.7235 36.3283 35.29C36.5239 34.8565 36.6252 34.3842 36.625 33.9062ZM35.754 20.7812H33.0181L33.3368 17.5H36.3915L35.754 20.7812ZM26 22.9688V26.25H23.7741L23.4553 22.9688H26ZM23.2428 20.7812L22.9241 17.5H26V20.7812H23.2428ZM28.125 22.9688H30.6697L30.3509 26.25H28.125V22.9688ZM28.125 20.7812V17.5H31.2009L30.8822 20.7812H28.125ZM20.7884 17.5L21.1072 20.7812H18.3713L17.7337 17.5H20.7884ZM18.7962 22.9688H21.3197L21.6384 26.25H19.4338L18.7962 22.9688ZM32.4866 26.25L32.8053 22.9688H35.3287L34.6912 26.25H32.4866ZM19.625 33.9062C19.625 34.1226 19.5627 34.334 19.4459 34.5139C19.3292 34.6938 19.1632 34.834 18.9691 34.9167C18.775 34.9995 18.5613 35.0212 18.3552 34.979C18.1491 34.9368 17.9598 34.8326 17.8112 34.6796C17.6626 34.5267 17.5614 34.3318 17.5204 34.1196C17.4794 33.9075 17.5005 33.6875 17.5809 33.4877C17.6613 33.2878 17.7975 33.117 17.9722 32.9968C18.1469 32.8766 18.3524 32.8125 18.5625 32.8125C18.8442 32.8128 19.1143 32.9282 19.3135 33.1332C19.5126 33.3383 19.6247 33.6163 19.625 33.9062ZM33.4375 35C33.2274 35 33.0219 34.9359 32.8472 34.8157C32.6725 34.6955 32.5363 34.5247 32.4559 34.3248C32.3755 34.125 32.3544 33.905 32.3954 33.6929C32.4364 33.4807 32.5376 33.2858 32.6862 33.1329C32.8348 32.9799 33.0241 32.8757 33.2302 32.8335C33.4363 32.7913 33.65 32.813 33.8441 32.8958C34.0382 32.9785 34.2042 33.1187 34.3209 33.2986C34.4377 33.4785 34.5 33.6899 34.5 33.9062C34.4997 34.1962 34.3876 34.4742 34.1885 34.6793C33.9893 34.8843 33.7192 34.9997 33.4375 35Z" fill="#0F6CB2"/>
<path d="M30.5612 46.2579L27.3737 49.5391C27.2751 49.6407 27.1968 49.7613 27.1434 49.894C27.09 50.0267 27.0625 50.1689 27.0625 50.3125C27.0625 50.4562 27.09 50.5984 27.1434 50.7311C27.1968 50.8638 27.2751 50.9844 27.3737 51.086L30.5612 54.3672C30.6599 54.4688 30.777 54.5494 30.9059 54.6043C31.0348 54.6593 31.173 54.6876 31.3125 54.6876C31.4521 54.6876 31.5902 54.6593 31.7191 54.6043C31.8481 54.5494 31.9652 54.4688 32.0639 54.3672L35.2514 51.086C35.35 50.9844 35.4283 50.8638 35.4817 50.7311C35.5351 50.5984 35.5626 50.4562 35.5626 50.3125C35.5626 50.1689 35.5351 50.0267 35.4817 49.894C35.4283 49.7613 35.35 49.6407 35.2514 49.5391L32.0639 46.2579C31.9652 46.1563 31.8481 46.0757 31.7191 46.0208C31.5902 45.9658 31.4521 45.9375 31.3125 45.9375C31.173 45.9375 31.0348 45.9658 30.9059 46.0208C30.777 46.0757 30.6599 46.1563 30.5612 46.2579ZM31.3125 52.0471L29.6275 50.3125L31.3125 48.578L32.9975 50.3125L31.3125 52.0471Z" fill="#0F6CB2"/>
<path d="M62.8763 2.50787C62.7776 2.4063 62.6605 2.32573 62.5316 2.27076C62.4027 2.21579 62.2645 2.1875 62.125 2.1875C61.9854 2.1875 61.8473 2.21579 61.7184 2.27076C61.5895 2.32573 61.4723 2.4063 61.3737 2.50787L58.1862 5.78912C58.0875 5.89069 58.0092 6.01126 57.9558 6.14397C57.9024 6.27667 57.8749 6.4189 57.8749 6.56254C57.8749 6.70618 57.9024 6.84841 57.9558 6.98111C58.0092 7.11382 58.0875 7.23439 58.1862 7.33596L61.3737 10.6172C61.4723 10.7188 61.5895 10.7993 61.7184 10.8543C61.8473 10.9093 61.9854 10.9376 62.125 10.9376C62.2645 10.9376 62.4027 10.9093 62.5316 10.8543C62.6605 10.7993 62.7776 10.7188 62.8763 10.6172L66.0638 7.33596C66.1625 7.23439 66.2407 7.11382 66.2941 6.98111C66.3475 6.84841 66.375 6.70618 66.375 6.56254C66.375 6.4189 66.3475 6.27667 66.2941 6.14397C66.2407 6.01126 66.1625 5.89069 66.0638 5.78912L62.8763 2.50787ZM62.125 8.29709L60.44 6.56254L62.125 4.82799L63.81 6.56254L62.125 8.29709Z" fill="#0F6CB2"/>
<path d="M11.5003 61.541V67H10.0062V62.6592H8.02863V67H6.53937V61.541H11.5003ZM16.0609 67.0977C15.4196 67.0977 14.9166 66.8649 14.5521 66.3994H14.4739C14.526 66.8551 14.5521 67.1188 14.5521 67.1904V69.4023H13.0628V61.541H14.2737L14.4837 62.249H14.5521C14.9004 61.7087 15.4163 61.4385 16.0999 61.4385C16.7444 61.4385 17.249 61.6875 17.6136 62.1855C17.9782 62.6836 18.1605 63.3753 18.1605 64.2607C18.1605 64.8434 18.0742 65.3496 17.9017 65.7793C17.7324 66.209 17.4899 66.5361 17.1741 66.7607C16.8584 66.9854 16.4873 67.0977 16.0609 67.0977ZM15.6214 62.6299C15.2536 62.6299 14.985 62.7438 14.8157 62.9717C14.6465 63.1963 14.5586 63.569 14.5521 64.0898V64.251C14.5521 64.8369 14.6383 65.2568 14.8109 65.5107C14.9866 65.7646 15.2633 65.8916 15.6409 65.8916C16.3082 65.8916 16.6419 65.3415 16.6419 64.2412C16.6419 63.7041 16.5589 63.3021 16.3929 63.0352C16.2301 62.765 15.973 62.6299 15.6214 62.6299ZM20.5775 64.2607C20.5775 64.8011 20.6653 65.2096 20.8411 65.4863C21.0202 65.763 21.3099 65.9014 21.7103 65.9014C22.1074 65.9014 22.3922 65.7646 22.5648 65.4912C22.7405 65.2145 22.8284 64.8044 22.8284 64.2607C22.8284 63.7204 22.7405 63.3151 22.5648 63.0449C22.389 62.7747 22.1009 62.6396 21.7005 62.6396C21.3034 62.6396 21.0169 62.7747 20.8411 63.0449C20.6653 63.3118 20.5775 63.7171 20.5775 64.2607ZM24.3519 64.2607C24.3519 65.1494 24.1175 65.8444 23.6487 66.3457C23.18 66.847 22.5273 67.0977 21.6907 67.0977C21.1666 67.0977 20.7044 66.9837 20.304 66.7559C19.9036 66.5247 19.596 66.1943 19.3812 65.7646C19.1663 65.335 19.0589 64.8337 19.0589 64.2607C19.0589 63.3688 19.2916 62.6755 19.7571 62.1807C20.2226 61.6859 20.8769 61.4385 21.72 61.4385C22.2441 61.4385 22.7064 61.5524 23.1068 61.7803C23.5071 62.0081 23.8148 62.3353 24.0296 62.7617C24.2444 63.1882 24.3519 63.6878 24.3519 64.2607ZM27.7991 67.0977C26.0999 67.0977 25.2503 66.165 25.2503 64.2998C25.2503 63.3721 25.4814 62.6641 25.9437 62.1758C26.4059 61.6842 27.0683 61.4385 27.931 61.4385C28.5625 61.4385 29.1289 61.5622 29.6302 61.8096L29.1907 62.9619C28.9564 62.8675 28.7383 62.791 28.5364 62.7324C28.3346 62.6706 28.1328 62.6396 27.931 62.6396C27.1562 62.6396 26.7689 63.1898 26.7689 64.29C26.7689 65.3577 27.1562 65.8916 27.931 65.8916C28.2174 65.8916 28.4827 65.8542 28.7269 65.7793C28.971 65.7012 29.2151 65.5807 29.4593 65.418V66.6924C29.2184 66.8454 28.9743 66.9512 28.7269 67.0098C28.4827 67.0684 28.1735 67.0977 27.7991 67.0977ZM35.2454 61.541V62.6592H33.4583V67H31.9691V62.6592H30.1771V61.541H35.2454ZM37.4525 64.2607C37.4525 64.8011 37.5403 65.2096 37.7161 65.4863C37.8952 65.763 38.1849 65.9014 38.5853 65.9014C38.9824 65.9014 39.2672 65.7646 39.4398 65.4912C39.6155 65.2145 39.7034 64.8044 39.7034 64.2607C39.7034 63.7204 39.6155 63.3151 39.4398 63.0449C39.264 62.7747 38.9759 62.6396 38.5755 62.6396C38.1784 62.6396 37.8919 62.7747 37.7161 63.0449C37.5403 63.3118 37.4525 63.7171 37.4525 64.2607ZM41.2269 64.2607C41.2269 65.1494 40.9925 65.8444 40.5237 66.3457C40.055 66.847 39.4023 67.0977 38.5657 67.0977C38.0416 67.0977 37.5794 66.9837 37.179 66.7559C36.7786 66.5247 36.471 66.1943 36.2562 65.7646C36.0413 65.335 35.9339 64.8337 35.9339 64.2607C35.9339 63.3688 36.1666 62.6755 36.6321 62.1807C37.0976 61.6859 37.7519 61.4385 38.595 61.4385C39.1191 61.4385 39.5814 61.5524 39.9818 61.7803C40.3821 62.0081 40.6898 62.3353 40.9046 62.7617C41.1194 63.1882 41.2269 63.6878 41.2269 64.2607Z" fill="#0F6CB2"/>
</svg>
