<svg width="75" height="73" viewBox="0 0 75 73" fill="none" xmlns="http://www.w3.org/2000/svg">
<path d="M53.0637 19.0427C53.1698 19.1538 53.2976 19.2431 53.4396 19.3055C53.5816 19.3679 53.7349 19.4021 53.8907 19.4061C54.0464 19.4101 54.2014 19.3838 54.3466 19.3288C54.4918 19.2738 54.6243 19.1912 54.7363 19.0858C54.8483 18.9804 54.9376 18.8543 54.9989 18.7149C55.0603 18.5755 55.0924 18.4256 55.0935 18.274C55.0947 18.1223 55.0647 17.972 55.0054 17.8318C54.9461 17.6915 54.8587 17.5642 54.7482 17.4573C50.1438 12.8198 44.0185 10.2656 37.5 10.2656C30.9814 10.2656 24.8562 12.8198 20.2512 17.4573C20.0421 17.676 19.9296 17.9657 19.9377 18.2643C19.9458 18.5629 20.074 18.8465 20.2946 19.0541C20.5152 19.2618 20.8107 19.3769 21.1176 19.3747C21.4244 19.3726 21.7182 19.2534 21.9357 19.0427C26.0959 14.8538 31.6232 12.5469 37.5 12.5469C43.3768 12.5469 48.9041 14.8538 53.0637 19.0427Z" fill="#0F6CB2"/>
<path d="M60.9375 13.6875C61.171 13.6875 61.3993 13.6196 61.5929 13.4925C61.7865 13.3655 61.9367 13.185 62.0242 12.9742C62.1117 12.7634 62.1325 12.5321 62.0839 12.3097C62.0354 12.0874 61.9197 11.8842 61.7517 11.7263C55.2716 5.63554 46.6589 2.28125 37.5 2.28125C28.3411 2.28125 19.7284 5.63554 13.2485 11.7263C13.1378 11.8304 13.0492 11.9546 12.9878 12.092C12.9265 12.2294 12.8935 12.3771 12.8908 12.5269C12.8881 12.6767 12.9158 12.8255 12.9721 12.9649C13.0285 13.1042 13.1126 13.2314 13.2195 13.3392C13.3264 13.4469 13.454 13.5331 13.5952 13.5929C13.7363 13.6526 13.8881 13.6847 14.042 13.6873C14.1959 13.6899 14.3488 13.663 14.4919 13.6082C14.6351 13.5533 14.7658 13.4715 14.8765 13.3674C20.9172 7.68952 28.9518 4.5625 37.5 4.5625C46.0482 4.5625 54.082 7.68952 60.1235 13.3674C60.3418 13.573 60.6337 13.6879 60.9375 13.6875Z" fill="#0F6CB2"/>
<path d="M46.6574 24.7099C46.7595 24.822 46.8833 24.9134 47.0217 24.9789C47.1601 25.0444 47.3104 25.0828 47.464 25.0918C47.6176 25.1007 47.7716 25.0802 47.917 25.0312C48.0625 24.9823 48.1966 24.906 48.3118 24.8066C48.4269 24.7072 48.5208 24.5867 48.5882 24.452C48.6555 24.3173 48.6949 24.171 48.7041 24.0215C48.7133 23.872 48.6922 23.7221 48.6419 23.5805C48.5916 23.439 48.5132 23.3084 48.4111 23.1963C45.5053 20.0067 41.6309 18.25 37.5001 18.25C33.3692 18.25 29.4948 20.0067 26.589 23.1963C26.3828 23.4227 26.2774 23.7195 26.2961 24.0215C26.3147 24.3235 26.4558 24.6059 26.6883 24.8066C26.9209 25.0073 27.2259 25.1099 27.5361 25.0918C27.8464 25.0736 28.1365 24.9363 28.3427 24.7099C30.7974 22.0152 34.0495 20.5312 37.5001 20.5312C40.9507 20.5312 44.2028 22.0152 46.6574 24.7099Z" fill="#0F6CB2"/>
<path d="M32.8125 30.7969C32.8125 31.6993 33.0874 32.5814 33.6025 33.3317C34.1176 34.082 34.8496 34.6668 35.7062 35.0121C36.5627 35.3574 37.5052 35.4478 38.4145 35.2717C39.3238 35.0957 40.159 34.6611 40.8146 34.0231C41.4701 33.385 41.9166 32.572 42.0974 31.687C42.2783 30.8019 42.1855 29.8846 41.8307 29.0509C41.4759 28.2172 40.8751 27.5046 40.1043 27.0033C39.3334 26.502 38.4271 26.2344 37.5 26.2344C36.2572 26.2357 35.0658 26.7169 34.187 27.5722C33.3082 28.4275 32.8139 29.5872 32.8125 30.7969ZM39.8438 30.7969C39.8438 31.2481 39.7063 31.6891 39.4488 32.0643C39.1912 32.4394 38.8252 32.7318 38.3969 32.9045C37.9687 33.0771 37.4974 33.1223 37.0428 33.0343C36.5881 32.9463 36.1705 32.729 35.8427 32.41C35.5149 32.0909 35.2917 31.6844 35.2013 31.2419C35.1109 30.7994 35.1573 30.3407 35.3347 29.9239C35.5121 29.507 35.8125 29.1508 36.1979 28.9001C36.5833 28.6494 37.0365 28.5156 37.5 28.5156C38.1214 28.5163 38.7171 28.7569 39.1565 29.1846C39.5959 29.6122 39.843 30.1921 39.8438 30.7969Z" fill="#0F6CB2"/>
<path d="M11.7188 65.2038C11.7205 66.666 12.318 68.0677 13.3802 69.1016C14.4424 70.1355 15.8826 70.7171 17.3848 70.7188H57.6152C59.1174 70.7171 60.5576 70.1355 61.6198 69.1016C62.682 68.0677 63.2795 66.666 63.2812 65.2038V44.2962C63.2795 42.834 62.682 41.4323 61.6198 40.3984C60.5576 39.3645 59.1174 38.7829 57.6152 38.7812H17.3848C15.8826 38.7829 14.4424 39.3645 13.3802 40.3984C12.318 41.4323 11.7205 42.834 11.7188 44.2962V65.2038ZM14.0625 44.2962C14.0635 43.4388 14.4138 42.6169 15.0366 42.0107C15.6595 41.4044 16.5039 41.0634 17.3848 41.0625H57.6152C58.4961 41.0634 59.3405 41.4044 59.9634 42.0107C60.5862 42.6169 60.9365 43.4388 60.9375 44.2962V65.2038C60.9365 66.0612 60.5862 66.8831 59.9634 67.4893C59.3405 68.0956 58.4961 68.4366 57.6152 68.4375H17.3848C16.5039 68.4366 15.6595 68.0956 15.0366 67.4893C14.4138 66.8831 14.0635 66.0612 14.0625 65.2038V44.2962Z" fill="#0F6CB2"/>
<path d="M19.9219 52.4688H22.2656C23.1977 52.4677 24.0913 52.1069 24.7504 51.4654C25.4095 50.8239 25.7802 49.9541 25.7812 49.0469V46.7656C25.7802 45.8584 25.4095 44.9886 24.7504 44.3471C24.0913 43.7056 23.1977 43.3448 22.2656 43.3438H19.9219C18.9898 43.3448 18.0962 43.7056 17.4371 44.3471C16.778 44.9886 16.4073 45.8584 16.4062 46.7656V49.0469C16.4073 49.9541 16.778 50.8239 17.4371 51.4654C18.0962 52.1069 18.9898 52.4677 19.9219 52.4688ZM18.75 46.7656C18.7503 46.4632 18.8739 46.1733 19.0936 45.9595C19.3133 45.7456 19.6112 45.6253 19.9219 45.625H22.2656C22.5763 45.6253 22.8742 45.7456 23.0939 45.9595C23.3136 46.1733 23.4372 46.4632 23.4375 46.7656V49.0469C23.4372 49.3493 23.3136 49.6392 23.0939 49.853C22.8742 50.0669 22.5763 50.1872 22.2656 50.1875H19.9219C19.6112 50.1872 19.3133 50.0669 19.0936 49.853C18.8739 49.6392 18.7503 49.3493 18.75 49.0469V46.7656Z" fill="#0F6CB2"/>
<path d="M48.0469 62.7344C48.0464 63.335 48.2084 63.9251 48.5167 64.4454C48.825 64.9657 49.2687 65.3977 49.803 65.6981C50.3374 65.9984 50.9436 66.1565 51.5606 66.1563C52.1777 66.1562 52.7838 65.9978 53.318 65.6972C53.8524 65.9988 54.4591 66.158 55.0768 66.1589C55.6946 66.1598 56.3017 66.0022 56.8371 65.7021C57.3724 65.4021 57.8171 64.97 58.1264 64.4495C58.4357 63.929 58.5986 63.3383 58.5988 62.737C58.5991 62.1357 58.4366 61.545 58.1277 61.0242C57.8189 60.5035 57.3745 60.0711 56.8394 59.7706C56.3043 59.4702 55.6973 59.3122 55.0795 59.3126C54.4618 59.313 53.855 59.4718 53.3203 59.7729C52.7862 59.4718 52.1799 59.313 51.5626 59.3125C50.9453 59.312 50.3388 59.4698 49.8042 59.7701C49.2695 60.0704 48.8256 60.5025 48.517 61.0229C48.2085 61.5433 48.0464 62.1336 48.0469 62.7344ZM56.25 62.7344C56.2508 62.9005 56.2141 63.0648 56.1426 63.2156C56.071 63.3664 55.9663 63.5001 55.8359 63.6072C55.7055 63.7144 55.5526 63.7924 55.3878 63.8357C55.2231 63.8791 55.0505 63.8867 54.8824 63.8581C55.1434 63.1305 55.1434 62.3383 54.8824 61.6106C55.0505 61.5821 55.223 61.5899 55.3877 61.6333C55.5524 61.6767 55.7053 61.7547 55.8357 61.8618C55.9661 61.969 56.0708 62.1026 56.1423 62.2534C56.2139 62.4041 56.2507 62.5683 56.25 62.7344ZM51.5625 61.5938C51.7943 61.5938 52.0208 61.6607 52.2136 61.786C52.4063 61.9114 52.5565 62.0895 52.6452 62.2979C52.7339 62.5064 52.7571 62.7357 52.7119 62.957C52.6666 63.1782 52.555 63.3815 52.3911 63.541C52.2273 63.7005 52.0184 63.8091 51.7911 63.8531C51.5638 63.8971 51.3282 63.8746 51.114 63.7882C50.8999 63.7019 50.7169 63.5557 50.5881 63.3681C50.4594 63.1805 50.3906 62.96 50.3906 62.7344C50.391 62.432 50.5146 62.1421 50.7342 61.9283C50.9539 61.7144 51.2518 61.5941 51.5625 61.5938Z" fill="#0F6CB2"/>
<path d="M57.4219 50.1875C57.7327 50.1875 58.0307 50.0673 58.2505 49.8534C58.4703 49.6395 58.5938 49.3494 58.5938 49.0469V46.7656C58.5938 46.4631 58.4703 46.173 58.2505 45.9591C58.0307 45.7452 57.7327 45.625 57.4219 45.625C57.1111 45.625 56.813 45.7452 56.5932 45.9591C56.3735 46.173 56.25 46.4631 56.25 46.7656V49.0469C56.25 49.3494 56.3735 49.6395 56.5932 49.8534C56.813 50.0673 57.1111 50.1875 57.4219 50.1875Z" fill="#0F6CB2"/>
<path d="M52.7344 50.1875C53.0452 50.1875 53.3432 50.0673 53.563 49.8534C53.7828 49.6395 53.9062 49.3494 53.9062 49.0469V46.7656C53.9062 46.4631 53.7828 46.173 53.563 45.9591C53.3432 45.7452 53.0452 45.625 52.7344 45.625C52.4236 45.625 52.1255 45.7452 51.9057 45.9591C51.686 46.173 51.5625 46.4631 51.5625 46.7656V49.0469C51.5625 49.3494 51.686 49.6395 51.9057 49.8534C52.1255 50.0673 52.4236 50.1875 52.7344 50.1875Z" fill="#0F6CB2"/>
<path d="M48.0469 49.0469C48.6941 49.0469 49.2188 48.5362 49.2188 47.9062C49.2188 47.2763 48.6941 46.7656 48.0469 46.7656C47.3997 46.7656 46.875 47.2763 46.875 47.9062C46.875 48.5362 47.3997 49.0469 48.0469 49.0469Z" fill="#0F6CB2"/>
<path d="M17.5781 57.0312H19.9219C20.2327 57.0312 20.5307 56.9111 20.7505 56.6972C20.9703 56.4833 21.0938 56.1931 21.0938 55.8906C21.0938 55.5881 20.9703 55.298 20.7505 55.0841C20.5307 54.8702 20.2327 54.75 19.9219 54.75H17.5781C17.2673 54.75 16.9693 54.8702 16.7495 55.0841C16.5297 55.298 16.4062 55.5881 16.4062 55.8906C16.4062 56.1931 16.5297 56.4833 16.7495 56.6972C16.9693 56.9111 17.2673 57.0312 17.5781 57.0312Z" fill="#0F6CB2"/>
<path d="M26.9531 57.0312H29.2969C29.6077 57.0312 29.9057 56.9111 30.1255 56.6972C30.3453 56.4833 30.4688 56.1931 30.4688 55.8906C30.4688 55.5881 30.3453 55.298 30.1255 55.0841C29.9057 54.8702 29.6077 54.75 29.2969 54.75H26.9531C26.6423 54.75 26.3443 54.8702 26.1245 55.0841C25.9047 55.298 25.7812 55.5881 25.7812 55.8906C25.7812 56.1931 25.9047 56.4833 26.1245 56.6972C26.3443 56.9111 26.6423 57.0312 26.9531 57.0312Z" fill="#0F6CB2"/>
<path d="M36.3281 57.0312H38.6719C38.9827 57.0312 39.2807 56.9111 39.5005 56.6972C39.7203 56.4833 39.8438 56.1931 39.8438 55.8906C39.8438 55.5881 39.7203 55.298 39.5005 55.0841C39.2807 54.8702 38.9827 54.75 38.6719 54.75H36.3281C36.0173 54.75 35.7193 54.8702 35.4995 55.0841C35.2797 55.298 35.1562 55.5881 35.1562 55.8906C35.1562 56.1931 35.2797 56.4833 35.4995 56.6972C35.7193 56.9111 36.0173 57.0312 36.3281 57.0312Z" fill="#0F6CB2"/>
<path d="M45.7031 57.0312H48.0469C48.3577 57.0312 48.6557 56.9111 48.8755 56.6972C49.0953 56.4833 49.2188 56.1931 49.2188 55.8906C49.2188 55.5881 49.0953 55.298 48.8755 55.0841C48.6557 54.8702 48.3577 54.75 48.0469 54.75H45.7031C45.3923 54.75 45.0943 54.8702 44.8745 55.0841C44.6547 55.298 44.5312 55.5881 44.5312 55.8906C44.5312 56.1931 44.6547 56.4833 44.8745 56.6972C45.0943 56.9111 45.3923 57.0312 45.7031 57.0312Z" fill="#0F6CB2"/>
<path d="M17.5781 61.5929L31.6406 61.5938C31.9514 61.5938 32.2495 61.4736 32.4693 61.2597C32.689 61.0458 32.8125 60.7556 32.8125 60.4531C32.8125 60.1506 32.689 59.8605 32.4693 59.6466C32.2495 59.4327 31.9514 59.3125 31.6406 59.3125L17.5781 59.3116C17.2673 59.3116 16.9693 59.4318 16.7495 59.6457C16.5297 59.8596 16.4062 60.1498 16.4062 60.4523C16.4062 60.7548 16.5297 61.0449 16.7495 61.2588C16.9693 61.4727 17.2673 61.5929 17.5781 61.5929Z" fill="#0F6CB2"/>
<path d="M17.5781 66.1554L33.9844 66.1562C34.2952 66.1562 34.5932 66.0361 34.813 65.8222C35.0328 65.6083 35.1562 65.3181 35.1562 65.0156C35.1562 64.7131 35.0328 64.423 34.813 64.2091C34.5932 63.9952 34.2952 63.875 33.9844 63.875L17.5781 63.8741C17.2673 63.8741 16.9693 63.9943 16.7495 64.2082C16.5297 64.4221 16.4062 64.7123 16.4062 65.0148C16.4062 65.3173 16.5297 65.6074 16.7495 65.8213C16.9693 66.0352 17.2673 66.1554 17.5781 66.1554Z" fill="#0F6CB2"/>
</svg>
