<svg width="70" height="70" viewBox="0 0 70 70" fill="none" xmlns="http://www.w3.org/2000/svg">
<path d="M64.5312 7.65618H57.9687C57.1204 7.65724 56.3053 7.98649 55.6943 8.57499C55.0832 9.16348 54.7236 9.96558 54.6906 10.8133L52.697 20.7812H37.7169C38.2426 19.2963 38.4042 17.707 38.1883 16.1467C37.9724 14.5864 37.3852 13.1007 36.4761 11.8144C35.5669 10.5281 34.3624 9.47873 32.9636 8.75448C31.5648 8.03022 30.0127 7.65222 28.4375 7.65222C26.8623 7.65222 25.3102 8.03022 23.9114 8.75448C22.5126 9.47873 21.308 10.5281 20.3989 11.8144C19.4897 13.1007 18.9026 14.5864 18.6866 16.1467C18.4707 17.707 18.6324 19.2963 19.1581 20.7812H3.28124C3.11941 20.7812 2.9596 20.8171 2.81332 20.8863C2.66705 20.9555 2.53796 21.0563 2.43536 21.1815C2.33276 21.3066 2.25921 21.453 2.22001 21.61C2.18081 21.767 2.17694 21.9308 2.20868 22.0894L6.58368 43.9644C6.63327 44.2124 6.76724 44.4355 6.96279 44.5958C7.15834 44.7561 7.40338 44.8437 7.65624 44.8437H49.2187C49.7989 44.8437 50.3553 45.0741 50.7655 45.4844C51.1758 45.8946 51.4062 46.451 51.4062 47.0312C51.4062 47.6113 51.1758 48.1677 50.7655 48.578C50.3553 48.9882 49.7989 49.2187 49.2187 49.2187H7.65624C7.36616 49.2187 7.08796 49.3339 6.88284 49.539C6.67772 49.7442 6.56249 50.0224 6.56249 50.3124V54.6874C6.56249 54.9775 6.67772 55.2557 6.88284 55.4608C7.08796 55.6659 7.36616 55.7812 7.65624 55.7812H9.33856C8.95363 56.4462 8.75063 57.2009 8.74999 57.9692C8.74935 58.7376 8.95109 59.4926 9.33491 60.1583C9.71873 60.8239 10.2711 61.3768 10.9364 61.7611C11.6018 62.1455 12.3566 62.3479 13.125 62.3479C13.8934 62.3479 14.6482 62.1455 15.3135 61.7611C15.9789 61.3768 16.5312 60.8239 16.9151 60.1583C17.2989 59.4926 17.5006 58.7376 17.5 57.9692C17.4993 57.2009 17.2963 56.4462 16.9114 55.7812H39.9636C39.5786 56.4462 39.3756 57.2009 39.375 57.9692C39.3743 58.7376 39.5761 59.4926 39.9599 60.1583C40.3437 60.8239 40.8961 61.3768 41.5614 61.7611C42.2268 62.1455 42.9816 62.3479 43.75 62.3479C44.5184 62.3479 45.2732 62.1455 45.9385 61.7611C46.6039 61.3768 47.1562 60.8239 47.5401 60.1583C47.9239 59.4926 48.1256 58.7376 48.125 57.9692C48.1243 57.2009 47.9213 56.4462 47.5364 55.7812H49.2187C49.5088 55.7812 49.787 55.6659 49.9921 55.4608C50.1973 55.2557 50.3125 54.9775 50.3125 54.6874V51.2677C51.2346 51.0299 52.0539 50.4978 52.646 49.7521C53.2382 49.0064 53.571 48.0878 53.5937 47.1359C53.6165 46.1839 53.328 45.2505 52.7722 44.4774C52.2163 43.7042 51.4234 43.1336 50.5137 42.852L54.6663 22.0894L56.3281 13.7775C56.8264 14.067 57.3925 14.2192 57.9687 14.2187H64.5312C65.4015 14.2187 66.2361 13.873 66.8514 13.2576C67.4668 12.6423 67.8125 11.8077 67.8125 10.9374C67.8125 10.0672 67.4668 9.23259 66.8514 8.61724C66.2361 8.00189 65.4015 7.65618 64.5312 7.65618ZM15.3125 57.9687C15.3125 58.4013 15.1842 58.8243 14.9438 59.184C14.7035 59.5437 14.3618 59.8241 13.9621 59.9897C13.5624 60.1552 13.1226 60.1986 12.6982 60.1142C12.2739 60.0297 11.8841 59.8214 11.5782 59.5155C11.2723 59.2096 11.0639 58.8198 10.9795 58.3954C10.8951 57.9711 10.9384 57.5313 11.104 57.1316C11.2696 56.7318 11.5499 56.3902 11.9097 56.1498C12.2694 55.9095 12.6923 55.7812 13.125 55.7812C13.7049 55.7819 14.2609 56.0126 14.671 56.4226C15.0811 56.8327 15.3118 57.3887 15.3125 57.9687ZM45.9375 57.9687C45.9375 58.4013 45.8092 58.8243 45.5688 59.184C45.3285 59.5437 44.9868 59.8241 44.5871 59.9897C44.1874 60.1552 43.7476 60.1986 43.3232 60.1142C42.8989 60.0297 42.5091 59.8214 42.2032 59.5155C41.8973 59.2096 41.6889 58.8198 41.6045 58.3954C41.5201 57.9711 41.5634 57.5313 41.729 57.1316C41.8946 56.7318 42.1749 56.3902 42.5347 56.1498C42.8944 55.9095 43.3173 55.7812 43.75 55.7812C44.3299 55.7819 44.8859 56.0126 45.296 56.4226C45.7061 56.8327 45.9368 57.3887 45.9375 57.9687ZM48.125 53.5937H8.74999V51.4062H48.125V53.5937ZM43.5738 22.9687L42.2613 31.7187H34.5093L34.8471 24.9616C35.5244 24.3801 36.12 23.7097 36.6178 22.9687H43.5738ZM24.6656 33.9062H32.2097L31.7722 42.6562H25.1029L24.6656 33.9062ZM22.9128 42.6562H16.2546L14.9421 33.9062H22.4753L22.9128 42.6562ZM24.5562 31.7187L24.2915 26.4248C25.5899 27.03 27.0051 27.3437 28.4376 27.3437C29.8702 27.3437 31.2853 27.03 32.5838 26.4248L32.3189 31.7187H24.5562ZM34.3999 33.9062H41.9331L40.6206 42.6562H33.9624L34.3999 33.9062ZM28.4375 9.84368C29.9518 9.84368 31.432 10.2927 32.6911 11.134C33.9501 11.9753 34.9315 13.171 35.5109 14.57C36.0904 15.969 36.242 17.5084 35.9466 18.9936C35.6512 20.4788 34.922 21.843 33.8513 22.9137C32.7805 23.9845 31.4163 24.7137 29.9312 25.0091C28.446 25.3045 26.9066 25.1529 25.5076 24.5734C24.1086 23.9939 22.9128 23.0126 22.0715 21.7535C21.2303 20.4945 20.7812 19.0142 20.7812 17.4999C20.7835 15.4701 21.5909 13.524 23.0262 12.0887C24.4616 10.6533 26.4076 9.84596 28.4375 9.84368ZM22.028 24.9616L22.3658 31.7187H14.6139L13.3014 22.9687H20.2573C20.7551 23.7097 21.3507 24.3801 22.028 24.9616ZM11.0894 22.9687L12.4019 31.7187H6.36548L4.61548 22.9687H11.0894ZM6.80298 33.9062H12.73L14.0425 42.6562H8.55298L6.80298 33.9062ZM48.322 42.6562H42.8325L44.145 33.9062H50.072L48.322 42.6562ZM50.5095 31.7187H44.4731L45.7856 22.9687H52.2595L50.5095 31.7187ZM64.5312 12.0312H57.9687C57.6787 12.0312 57.4005 11.9159 57.1953 11.7108C56.9902 11.5057 56.875 11.2275 56.875 10.9374C56.875 10.6474 56.9902 10.3692 57.1953 10.164C57.4005 9.95892 57.6787 9.84368 57.9687 9.84368H64.5312C64.8213 9.84368 65.0995 9.95892 65.3046 10.164C65.5098 10.3692 65.625 10.6474 65.625 10.9374C65.625 11.2275 65.5098 11.5057 65.3046 11.7108C65.0995 11.9159 64.8213 12.0312 64.5312 12.0312Z" fill="#0F6CB2"/>
<path d="M25.6133 21.5547C25.7149 21.6562 25.8354 21.7368 25.9681 21.7918C26.1009 21.8467 26.2431 21.875 26.3867 21.875C26.4031 21.875 26.4197 21.875 26.4362 21.8739C26.5881 21.867 26.7368 21.8286 26.873 21.761C27.0091 21.6934 27.1297 21.5982 27.227 21.4814L32.6957 14.9189C32.8795 14.6958 32.9675 14.4091 32.9405 14.1213C32.9135 13.8336 32.7737 13.5682 32.5517 13.3832C32.3296 13.1982 32.0434 13.1086 31.7555 13.134C31.4676 13.1594 31.2014 13.2976 31.0152 13.5186L26.3133 19.1609L24.9726 17.8203C24.7675 17.6152 24.4893 17.5 24.1992 17.5C23.9091 17.5 23.6309 17.6152 23.4258 17.8203C23.2207 18.0255 23.1054 18.3037 23.1054 18.5938C23.1054 18.8839 23.2207 19.1621 23.4258 19.3672L25.6133 21.5547Z" fill="#0F6CB2"/>
</svg>
