<?xml version="1.0" encoding="utf-8"?><svg xmlns="http://www.w3.org/2000/svg" xmlns:xlink="http://www.w3.org/1999/xlink"><symbol viewBox="0 0 30 28" id="basket" xmlns="http://www.w3.org/2000/svg"><g clip-path="url(#aclip0)"><path d="M7.5 23.366a2.507 2.507 0 00-2.5 2.5c0 1.375 1.125 2.5 2.5 2.5s2.5-1.125 2.5-2.5-1.125-2.5-2.5-2.5zm-7.5-20v2.5h2.5l4.5 9.5-1.75 3c-.125.375-.25.875-.25 1.25 0 1.375 1.125 2.5 2.5 2.5h15v-2.5H8a.269.269 0 01-.25-.25v-.125l1.125-2.125h9.25c1 0 1.75-.5 2.125-1.25l4.5-8.125c.25-.25.25-.375.25-.625 0-.75-.5-1.25-1.25-1.25H5.25l-1.125-2.5H0zm20 20a2.507 2.507 0 00-2.5 2.5c0 1.375 1.125 2.5 2.5 2.5s2.5-1.125 2.5-2.5-1.125-2.5-2.5-2.5z"/><g filter="url(#afilter0_d)"><circle cx="23.264" cy="6.928" r="5.659"/></g><path d="M25.319 6.809c0 .992-.16 1.729-.48 2.21-.319.483-.805.723-1.462.723-.635 0-1.117-.248-1.445-.746-.328-.497-.492-1.226-.492-2.187 0-1.008.159-1.75.476-2.227.32-.479.808-.718 1.461-.718.638 0 1.121.25 1.45.75.328.5.492 1.231.492 2.195zm-2.95 0c0 .778.08 1.334.239 1.668.161.333.418.5.77.5.35 0 .607-.17.769-.508.164-.339.246-.892.246-1.66 0-.766-.082-1.32-.246-1.66-.162-.344-.418-.516-.77-.516-.351 0-.608.168-.77.504-.158.336-.238.893-.238 1.672z"/></g><defs><clipPath id="aclip0"><path d="M0 0h30v28H0z"/></clipPath><filter id="afilter0_d" x="12.604" y="-3.731" width="21.319" height="21.319" filterUnits="userSpaceOnUse" color-interpolation-filters="sRGB"><feFlood flood-opacity="0" result="BackgroundImageFix"/><feColorMatrix in="SourceAlpha" values="0 0 0 0 0 0 0 0 0 0 0 0 0 0 0 0 0 0 127 0"/><feOffset/><feGaussianBlur stdDeviation="2.5"/><feColorMatrix values="0 0 0 0 0 0 0 0 0 0 0 0 0 0 0 0 0 0 0.3 0"/><feBlend in2="BackgroundImageFix" result="effect1_dropShadow"/><feBlend in="SourceGraphic" in2="effect1_dropShadow" result="shape"/></filter></defs></symbol><symbol viewBox="0 0 23 17" id="catalog-2" xmlns="http://www.w3.org/2000/svg"><path d="M21.496 9.781H4.161c-.435 0-.788-.41-.788-.916s.353-.917.788-.917h17.335c.435 0 .788.41.788.917 0 .506-.353.916-.788.916zm-.129-7.028H1.201A.917.917 0 011.2.92h20.166a.917.917 0 010 1.833zm.376 14.056H9.84c-.299 0-.541-.41-.541-.917 0-.506.242-.916.54-.916h11.904c.299 0 .54.41.54.916s-.242.917-.54.917z"/></symbol><symbol viewBox="0 0 344.96 344.96" id="check" xmlns="http://www.w3.org/2000/svg"><g data-name="Слой 2"><path d="M321.85 86.24l-40-23.11-23.1-40H212.5L172.48 0l-40 23.11H86.24l-23.11 40-40 23.1v46.21L0 172.48l23.11 40v46.21l40 23.11 23.11 40h46.21l40 23.1 40-23.11h46.21l23.11-40 40-23.11V212.5l23.11-40-23.11-40V86.24zM156.91 243.07a16.79 16.79 0 01-23.34 0l-50.45-50.44a16.19 16.19 0 010-22.89l13.35-13.35a16.19 16.19 0 0122.89 0l25.87 25.87 80.34-80.35a16.19 16.19 0 0122.89 0l13.35 13.35a16.19 16.19 0 010 22.89z" data-name="Capa 1"/></g></symbol><symbol viewBox="0 0 16 40" id="chevron-left" xmlns="http://www.w3.org/2000/svg"><path d="M15.261.658L1.293 20.081l13.968 19.423"/></symbol><symbol viewBox="0 0 16 40" id="chevron-right" xmlns="http://www.w3.org/2000/svg"><path d="M.615.658l13.968 19.423L.615 39.504"/></symbol><symbol viewBox="0 0 12 12" id="clock" xmlns="http://www.w3.org/2000/svg"><path d="M12 6.07c0 3.309-2.691 6-6 6s-6-2.691-6-6 2.691-6 6-6 6 2.691 6 6zM8.854 8.466L6.5 6.113V3.07a.5.5 0 10-1 0v3.25c0 .133.052.26.147.354l2.5 2.5a.498.498 0 00.707 0 .5.5 0 000-.708z"/></symbol><symbol class="gsvg-inline--fa gfa-map-marker-alt gfa-w-12" viewBox="0 0 384 512" id="map-marker" xmlns="http://www.w3.org/2000/svg"><path d="M172.268 501.67C26.97 291.031 0 269.413 0 192 0 85.961 85.961 0 192 0s192 85.961 192 192c0 77.413-26.97 99.031-172.268 309.67-9.535 13.774-29.93 13.773-39.464 0zM192 272c44.183 0 80-35.817 80-80s-35.817-80-80-80-80 35.817-80 80 35.817 80 80 80z"/></symbol><symbol class="hsvg-inline--fa hfa-mobile-alt hfa-w-10" viewBox="0 0 320 512" id="mobile" xmlns="http://www.w3.org/2000/svg"><path d="M272 0H48C21.5 0 0 21.5 0 48v416c0 26.5 21.5 48 48 48h224c26.5 0 48-21.5 48-48V48c0-26.5-21.5-48-48-48zM160 480c-17.7 0-32-14.3-32-32s14.3-32 32-32 32 14.3 32 32-14.3 32-32 32zm112-108c0 6.6-5.4 12-12 12H60c-6.6 0-12-5.4-12-12V60c0-6.6 5.4-12 12-12h200c6.6 0 12 5.4 12 12v312z"/></symbol><symbol viewBox="0 0 15 15" id="place" xmlns="http://www.w3.org/2000/svg"><path d="M7.373.461A4.894 4.894 0 002.485 5.35c0 3.388 4.893 9.175 4.893 9.175S12.26 8.57 12.26 5.349A4.894 4.894 0 007.373.461zm1.475 6.32a2.08 2.08 0 01-1.475.61 2.08 2.08 0 01-1.475-.61 2.088 2.088 0 011.475-3.56c.557 0 1.08.216 1.475.61a2.088 2.088 0 010 2.95z"/></symbol><symbol viewBox="0 0 10 11" id="search" xmlns="http://www.w3.org/2000/svg"><g clip-path="url(#jclip0)"><path d="M9.878 10.222L7.034 7.378a3.94 3.94 0 00.883-2.487A3.963 3.963 0 003.958.933 3.963 3.963 0 000 4.89a3.963 3.963 0 003.958 3.96 3.94 3.94 0 002.487-.882l2.844 2.844a.415.415 0 00.589 0 .416.416 0 000-.59zm-5.92-2.206A3.128 3.128 0 01.833 4.891a3.128 3.128 0 013.125-3.125 3.128 3.128 0 013.125 3.125 3.128 3.128 0 01-3.125 3.125z"/></g><defs><clipPath id="jclip0"><path transform="translate(0 .932)" d="M0 0h10v10H0z"/></clipPath></defs></symbol><symbol viewBox="0 0 25 25" id="shop" xmlns="http://www.w3.org/2000/svg"><path d="M7.5 20.366a2.507 2.507 0 00-2.5 2.5c0 1.375 1.125 2.5 2.5 2.5s2.5-1.125 2.5-2.5-1.125-2.5-2.5-2.5zM0 .366v2.5h2.5l4.5 9.5-1.75 3c-.125.375-.25.875-.25 1.25 0 1.375 1.125 2.5 2.5 2.5h15v-2.5H8a.269.269 0 01-.25-.25v-.125l1.125-2.125h9.25c1 0 1.75-.5 2.125-1.25l4.5-8.125c.25-.25.25-.375.25-.625 0-.75-.5-1.25-1.25-1.25H5.25L4.125.366H0zm20 20a2.507 2.507 0 00-2.5 2.5c0 1.375 1.125 2.5 2.5 2.5s2.5-1.125 2.5-2.5-1.125-2.5-2.5-2.5z"/></symbol><symbol viewBox="0 0 16 16" id="telegram" xmlns="http://www.w3.org/2000/svg"><path d="M14.629 3.698l-2.012 9.618c-.152.679-.548.848-1.11.528l-3.066-2.29-1.48 1.442c-.163.166-.3.305-.616.305l.22-3.165 5.683-5.204c.247-.223-.054-.347-.384-.123L4.839 9.29l-3.024-.959c-.658-.208-.67-.667.137-.986L13.78 2.727c.548-.208 1.027.124.849.971z"/></symbol><symbol viewBox="0 0 18 19" id="viber" xmlns="http://www.w3.org/2000/svg"><path d="M16.764 3.533a18.56 18.56 0 010 7.68c-.298 1.3-2.023 2.955-3.392 3.25-1.784.296-3.629.473-5.414.414-.06 0-.119.059-.119.059-.238.236-1.665 1.713-1.665 1.713l-1.785 1.832c-.12.177-.357.059-.357-.118V14.64c0-.059-.06-.118-.12-.118-1.308-.295-3.033-1.95-3.39-3.249a18.562 18.562 0 010-7.68c.297-1.3 2.022-2.955 3.39-3.25 3.094-.59 6.307-.59 9.4 0 1.37.295 3.095 1.95 3.452 3.19zm-3.51 7.208c-.298-.236-.596-.413-.893-.65-.357-.236-.655-.472-.952-.65-.357-.177-.714-.177-1.011.06-.298.236-.476.708-.893.768-.297 0-.476-.06-.714-.178-1.368-.59-2.26-1.654-2.736-3.013a.57.57 0 01.059-.531c.06-.119.179-.178.238-.237.119-.118.179-.177.297-.236.417-.296.476-.768.238-1.182-.356-.65-.832-1.24-1.308-1.831-.238-.237-.536-.355-.833-.177a2.753 2.753 0 00-1.071.768c-.298.354-.595.827-.417 1.3.179.531.417 1.004.655 1.535a14.209 14.209 0 001.963 2.954c1.428 1.537 3.213 2.6 5.117 3.368.178.06.357.118.595.177l.535-.177c.595-.295.952-.768 1.25-1.359.118-.295.059-.59-.12-.709zm-2.202-3.958v-.236c-.119-1.123-.833-1.655-1.785-1.714-.119 0-.297.118-.297.237 0 .177.06.295.238.354.178 0 .297 0 .476.06l.357.176c.238.178.357.414.416.65.06.118.06.296.06.414.06.177.119.295.357.295-.06 0-.12 0 0 0 .119 0 .178-.118.178-.236zm.476-1.24c.238.472.357 1.004.357 1.535 0 .06.06.177.06.237.059.295.475.236.535 0v-.768c-.179-1.182-.774-2.068-1.844-2.6-.536-.236-1.071-.354-1.666-.414-.179-.059-.298.06-.298.237-.06.177.06.295.238.295.12 0 .298.06.417.06.357.058.654.176.952.295.476.236.892.59 1.249 1.122zM13.67 7.61c0-.473-.06-.886-.12-1.3-.415-2.479-2.494-4.132-4.99-4.194h-.126c-.178 0-.357.177-.297.354.06.236.297.236.476.236.238.06.535.06.833.118 1.844.296 3.39 1.832 3.629 3.723.06.354.119.709.119 1.063 0 .177.119.354.297.354.179 0 .298-.177.179-.354zM8.553 2.116h.007c2.428.058.112 0-.007 0z"/></symbol></svg>