<svg width="31" height="32" viewBox="0 0 31 32" fill="none" xmlns="http://www.w3.org/2000/svg">
<circle cx="15.3555" cy="16.0178" r="15.1487" fill="#2F89CE"/>
<path d="M7.28919 16.3011L10.772 17.5998L12.1296 21.9679C12.1887 22.2631 12.5428 22.3221 12.779 22.145L14.7269 20.5512C14.904 20.3741 15.1992 20.3741 15.4353 20.5512L18.918 23.0895C19.1541 23.2666 19.5083 23.1485 19.5674 22.8534L22.1647 10.4572C22.2237 10.162 21.9285 9.86688 21.6334 9.98494L7.28919 15.5337C6.93502 15.6518 6.93502 16.183 7.28919 16.3011ZM11.9525 16.9504L18.8 12.7593C18.918 12.7003 19.0361 12.8774 18.918 12.9364L13.3102 18.1901C13.1331 18.3671 12.956 18.6033 12.956 18.8984L12.779 20.3151C12.779 20.4922 12.4838 20.5512 12.4248 20.3151L11.7164 17.7178C11.5393 17.4227 11.6574 17.0685 11.9525 16.9504Z" fill="white"/>
</svg>
