<svg width="33" height="34" viewBox="0 0 33 34" fill="none" xmlns="http://www.w3.org/2000/svg">
<circle cx="16.2334" cy="17.0178" r="16.2334" fill="#7C509A"/>
<path d="M21.3096 9.34416C18.2159 8.75336 15.0032 8.75336 11.9095 9.34416C10.5411 9.63957 8.81576 11.2938 8.51829 12.5936C7.98284 15.134 7.98284 17.7336 8.51829 20.274C8.87525 21.5738 10.6006 23.228 11.9095 23.5234C11.969 23.5234 12.0284 23.5825 12.0284 23.6416V27.3637C12.0284 27.5409 12.2664 27.6591 12.3854 27.4818L14.1702 25.6503C14.1702 25.6503 15.5981 24.1733 15.8361 23.937C15.8361 23.937 15.8956 23.8779 15.9551 23.8779C17.7399 23.937 19.5842 23.7598 21.369 23.4644C22.7374 23.169 24.4627 21.5147 24.7602 20.2149C25.2957 17.6745 25.2957 15.075 24.7602 12.5345C24.4033 11.2938 22.6779 9.63957 21.3096 9.34416ZM21.369 20.4513C21.0716 21.0421 20.7146 21.5147 20.1197 21.8101C19.9412 21.8692 19.7627 21.9283 19.5842 21.9874C19.3462 21.9283 19.1678 21.8692 18.9893 21.8101C17.0855 21.0421 15.3006 19.9786 13.8728 18.4425C13.0993 17.5563 12.4449 16.552 11.9095 15.4885C11.6715 14.9568 11.4335 14.4842 11.255 13.9524C11.0765 13.4798 11.374 13.0071 11.6715 12.6527C11.969 12.2982 12.3259 12.0619 12.7424 11.8846C13.0398 11.7074 13.3373 11.8255 13.5753 12.0619C14.0513 12.6527 14.5272 13.2435 14.8842 13.8934C15.1221 14.3069 15.0627 14.7796 14.6462 15.075C14.5272 15.134 14.4677 15.1931 14.3487 15.3113C14.2892 15.3704 14.1702 15.4294 14.1107 15.5476C13.9918 15.7248 13.9918 15.9021 14.0512 16.0793C14.5272 17.4382 15.4196 18.5016 16.788 19.0924C17.026 19.2106 17.2044 19.2697 17.5019 19.2697C17.9184 19.2106 18.0969 18.7379 18.3943 18.5016C18.6918 18.2653 19.0488 18.2653 19.4057 18.4425C19.7032 18.6198 20.0007 18.8561 20.3576 19.0924C20.6551 19.3287 20.9526 19.506 21.2501 19.7423C21.4285 19.8605 21.488 20.1559 21.369 20.4513ZM18.8703 16.0202C18.7513 16.0202 18.8108 16.0202 18.8703 16.0202C18.6323 16.0202 18.5728 15.9021 18.5133 15.7248C18.5133 15.6067 18.5133 15.4294 18.4538 15.3113C18.3943 15.075 18.2753 14.8386 18.0374 14.6614C17.9184 14.6023 17.7994 14.5432 17.6804 14.4842C17.5019 14.4251 17.3829 14.4251 17.2044 14.4251C17.026 14.366 16.9665 14.2478 16.9665 14.0706C16.9665 13.9524 17.145 13.8343 17.2639 13.8343C18.2158 13.8934 18.9298 14.4251 19.0488 15.5476C19.0488 15.6067 19.0488 15.7248 19.0488 15.7839C19.0488 15.9021 18.9893 16.0202 18.8703 16.0202ZM18.2753 13.4207C17.9779 13.3025 17.6804 13.1844 17.3234 13.1253C17.2044 13.1253 17.026 13.0662 16.907 13.0662C16.7285 13.0662 16.6095 12.9481 16.669 12.7708C16.669 12.5936 16.788 12.4754 16.9665 12.5345C17.5614 12.5936 18.0969 12.7117 18.6323 12.9481C19.7032 13.4798 20.2981 14.366 20.4766 15.5476C20.4766 15.6067 20.4766 15.6658 20.4766 15.7248C20.4766 15.843 20.4766 15.9612 20.4766 16.1384C20.4766 16.1975 20.4766 16.2566 20.4766 16.3156C20.4171 16.552 20.0007 16.611 19.9412 16.3156C19.9412 16.2566 19.8817 16.1384 19.8817 16.0793C19.8817 15.5476 19.7627 15.0159 19.5247 14.5432C19.1678 14.0115 18.7513 13.657 18.2753 13.4207ZM21.488 16.9655C21.3096 16.9655 21.1906 16.7883 21.1906 16.611C21.1906 16.2566 21.1311 15.9021 21.0716 15.5476C20.8336 13.657 19.2867 12.1209 17.4424 11.8255C17.145 11.7665 16.8475 11.7665 16.6095 11.7074C16.431 11.7074 16.193 11.7074 16.1335 11.4711C16.0741 11.2938 16.2525 11.1166 16.431 11.1166C16.4905 11.1166 16.55 11.1166 16.55 11.1166C18.9893 11.1757 16.669 11.1166 16.55 11.1166C19.0488 11.1757 21.1311 12.8299 21.5475 15.3113C21.607 15.7248 21.6665 16.1384 21.6665 16.611C21.7855 16.7883 21.6665 16.9655 21.488 16.9655Z" fill="white"/>
</svg>
