<svg width="30" height="28" viewBox="0 0 30 28" fill="none" xmlns="http://www.w3.org/2000/svg">
<g clip-path="url(#clip0)">
<path d="M7.5 23.3661C6.125 23.3661 5 24.4911 5 25.8661C5 27.2411 6.125 28.3661 7.5 28.3661C8.875 28.3661 10 27.2411 10 25.8661C10 24.4911 8.875 23.3661 7.5 23.3661ZM0 3.36609V5.86609H2.5L7 15.3661L5.25 18.3661C5.125 18.7411 5 19.2411 5 19.6161C5 20.9911 6.125 22.1161 7.5 22.1161H22.5V19.6161H8C7.875 19.6161 7.75 19.4911 7.75 19.3661V19.241L8.875 17.116H18.125C19.125 17.116 19.875 16.616 20.25 15.866L24.75 7.74109C25 7.49109 25 7.36609 25 7.11609C25 6.36609 24.5 5.86609 23.75 5.86609H5.25L4.125 3.36609H0ZM20 23.3661C18.625 23.3661 17.5 24.4911 17.5 25.8661C17.5 27.2411 18.625 28.3661 20 28.3661C21.375 28.3661 22.5 27.2411 22.5 25.8661C22.5 24.4911 21.375 23.3661 20 23.3661Z" fill="#DBDBDB"/>
<g filter="url(#filter0_d)">
<circle cx="23.2635" cy="6.92837" r="5.65936" fill="white"/>
</g>
<path d="M25.3187 6.80884C25.3187 7.80103 25.1586 8.538 24.8383 9.01978C24.5205 9.50155 24.0336 9.74243 23.3773 9.74243C22.7419 9.74243 22.2601 9.49373 21.932 8.99634C21.6039 8.49894 21.4398 7.76978 21.4398 6.80884C21.4398 5.80103 21.5987 5.05884 21.9164 4.58228C22.2367 4.10311 22.7237 3.86353 23.3773 3.86353C24.0153 3.86353 24.4984 4.11353 24.8265 4.61353C25.1547 5.11353 25.3187 5.8453 25.3187 6.80884ZM22.3695 6.80884C22.3695 7.58748 22.4489 8.14347 22.6078 8.47681C22.7692 8.81014 23.0258 8.97681 23.3773 8.97681C23.7289 8.97681 23.9854 8.80754 24.1469 8.46899C24.3109 8.13045 24.3929 7.57707 24.3929 6.80884C24.3929 6.04321 24.3109 5.48983 24.1469 5.14868C23.9854 4.80493 23.7289 4.63306 23.3773 4.63306C23.0258 4.63306 22.7692 4.80103 22.6078 5.13696C22.4489 5.4729 22.3695 6.03019 22.3695 6.80884Z" fill="#0F6CB2"/>
</g>
<defs>
<filter id="filter0_d" x="12.6041" y="-3.73099" width="21.3187" height="21.3187" filterUnits="userSpaceOnUse" color-interpolation-filters="sRGB">
<feFlood flood-opacity="0" result="BackgroundImageFix"/>
<feColorMatrix in="SourceAlpha" type="matrix" values="0 0 0 0 0 0 0 0 0 0 0 0 0 0 0 0 0 0 127 0"/>
<feOffset/>
<feGaussianBlur stdDeviation="2.5"/>
<feColorMatrix type="matrix" values="0 0 0 0 0 0 0 0 0 0 0 0 0 0 0 0 0 0 0.3 0"/>
<feBlend mode="normal" in2="BackgroundImageFix" result="effect1_dropShadow"/>
<feBlend mode="normal" in="SourceGraphic" in2="effect1_dropShadow" result="shape"/>
</filter>
<clipPath id="clip0">
<rect width="30" height="28" fill="white"/>
</clipPath>
</defs>
</svg>
