<svg width="23" height="17" viewBox="0 0 23 17" fill="none" xmlns="http://www.w3.org/2000/svg">
<path d="M21.496 9.78133H4.16094C3.72599 9.78133 3.37299 9.37067 3.37299 8.86467C3.37299 8.35866 3.72599 7.948 4.16094 7.948H21.496C21.9309 7.948 22.2839 8.35866 22.2839 8.86467C22.2839 9.37067 21.9309 9.78133 21.496 9.78133Z" fill="#0F6CB2"/>
<path d="M21.3673 2.7535H1.2006C0.6946 2.7535 0.283936 2.34283 0.283936 1.83683C0.283936 1.33083 0.6946 0.920166 1.2006 0.920166H21.3673C21.8733 0.920166 22.2839 1.33083 22.2839 1.83683C22.2839 2.34283 21.8733 2.7535 21.3673 2.7535Z" fill="#0F6CB2"/>
<path d="M21.7429 16.8089H9.83984C9.54119 16.8089 9.2988 16.3983 9.2988 15.8923C9.2988 15.3863 9.54119 14.9756 9.83984 14.9756H21.7429C22.0415 14.9756 22.2839 15.3863 22.2839 15.8923C22.2839 16.3983 22.0415 16.8089 21.7429 16.8089Z" fill="#0F6CB2"/>
</svg>
