<svg width="12" height="13" viewBox="0 0 12 13" fill="none" xmlns="http://www.w3.org/2000/svg">
<g clip-path="url(#clip0)">
<path d="M6 0.0735168C2.69147 0.0735168 0 2.76498 0 6.07352C0 9.38205 2.69147 12.0735 6 12.0735C9.30853 12.0735 12 9.38205 12 6.07352C12 2.76498 9.30853 0.0735168 6 0.0735168ZM8.85352 9.17697C8.75601 9.27448 8.62802 9.32355 8.50003 9.32355C8.37204 9.32355 8.24396 9.27448 8.14655 9.17697L5.64651 6.67703C5.55249 6.58356 5.50003 6.45648 5.50003 6.32355V3.07352C5.50003 2.79703 5.72397 2.57355 6 2.57355C6.27603 2.57355 6.49997 2.79703 6.49997 3.07352V6.11655L8.85352 8.47C9.04898 8.66556 9.04898 8.98151 8.85352 9.17697Z" fill="#0F6CB2"/>
</g>
<defs>
<clipPath id="clip0">
<rect width="12" height="12" fill="white" transform="translate(0 0.0735168)"/>
</clipPath>
</defs>
</svg>
