<svg width="23" height="17" viewBox="0 0 23 17" fill="none" xmlns="http://www.w3.org/2000/svg">
<path d="M14.8943 9.10607H1.33391C0.993667 9.10607 0.717529 8.6954 0.717529 8.1894C0.717529 7.6834 0.993667 7.27274 1.33391 7.27274H14.8943C15.2346 7.27274 15.5107 7.6834 15.5107 8.1894C15.5107 8.6954 15.2346 9.10607 14.8943 9.10607Z" fill="#0F6CB2"/>
<path d="M21.8009 2.07824H1.6342C1.12819 2.07824 0.717529 1.66757 0.717529 1.16157C0.717529 0.655569 1.12819 0.244904 1.6342 0.244904H21.8009C22.3069 0.244904 22.7175 0.655569 22.7175 1.16157C22.7175 1.66757 22.3069 2.07824 21.8009 2.07824Z" fill="#0F6CB2"/>
<path d="M21.8009 16.1337H1.6342C1.12819 16.1337 0.717529 15.723 0.717529 15.217C0.717529 14.711 1.12819 14.3003 1.6342 14.3003H21.8009C22.3069 14.3003 22.7175 14.711 22.7175 15.217C22.7175 15.723 22.3069 16.1337 21.8009 16.1337Z" fill="#0F6CB2"/>
</svg>
