<svg width="15" height="15" viewBox="0 0 15 15" fill="none" xmlns="http://www.w3.org/2000/svg">
<path d="M7.3728 0.461426C4.67754 0.461426 2.48474 2.65423 2.48474 5.34948C2.48474 8.73713 7.37761 14.5239 7.37761 14.5239C7.37761 14.5239 12.2609 8.57054 12.2609 5.34948C12.2609 2.65423 10.0681 0.461426 7.3728 0.461426ZM8.84763 6.78071C8.44096 7.18729 7.90692 7.39062 7.3728 7.39062C6.83876 7.39062 6.30455 7.18729 5.89806 6.78071C5.08481 5.96755 5.08481 4.64438 5.89806 3.83114C6.29185 3.43718 6.81567 3.2202 7.3728 3.2202C7.92993 3.2202 8.45366 3.43726 8.84763 3.83114C9.66087 4.64438 9.66087 5.96755 8.84763 6.78071Z" fill="#0F6CB2"/>
</svg>
