<svg width="10" height="11" viewBox="0 0 10 11" fill="none" xmlns="http://www.w3.org/2000/svg">
<g clip-path="url(#clip0)">
<path d="M9.87781 10.2216L7.03409 7.37783C7.58493 6.69743 7.91658 5.83284 7.91658 4.89119C7.91658 2.70871 6.14076 0.932892 3.95828 0.932892C1.7758 0.932892 0 2.7087 0 4.89117C0 7.07365 1.77582 8.84948 3.9583 8.84948C4.89995 8.84948 5.76453 8.51782 6.44494 7.96698L9.28866 10.8107C9.36991 10.892 9.47657 10.9328 9.58325 10.9328C9.68992 10.9328 9.79658 10.892 9.87783 10.8107C10.0407 10.6478 10.0407 10.3845 9.87781 10.2216ZM3.9583 8.01614C2.23498 8.01614 0.833332 6.6145 0.833332 4.89117C0.833332 3.16785 2.23498 1.7662 3.9583 1.7662C5.68162 1.7662 7.08327 3.16785 7.08327 4.89117C7.08327 6.6145 5.6816 8.01614 3.9583 8.01614Z" fill="#666666"/>
</g>
<defs>
<clipPath id="clip0">
<rect width="10" height="10" fill="white" transform="translate(0 0.932007)"/>
</clipPath>
</defs>
</svg>
