<svg width="25" height="25" viewBox="0 0 25 25" fill="none" xmlns="http://www.w3.org/2000/svg">
<path d="M7.5 20.3661C6.125 20.3661 5 21.4911 5 22.8661C5 24.2411 6.125 25.3661 7.5 25.3661C8.875 25.3661 10 24.2411 10 22.8661C10 21.4911 8.875 20.3661 7.5 20.3661ZM0 0.366089V2.86609H2.5L7 12.3661L5.25 15.3661C5.125 15.7411 5 16.2411 5 16.6161C5 17.9911 6.125 19.1161 7.5 19.1161H22.5V16.6161H8C7.875 16.6161 7.75 16.4911 7.75 16.3661V16.241L8.875 14.116H18.125C19.125 14.116 19.875 13.616 20.25 12.866L24.75 4.74109C25 4.49109 25 4.36609 25 4.11609C25 3.36609 24.5 2.86609 23.75 2.86609H5.25L4.125 0.366089H0ZM20 20.3661C18.625 20.3661 17.5 21.4911 17.5 22.8661C17.5 24.2411 18.625 25.3661 20 25.3661C21.375 25.3661 22.5 24.2411 22.5 22.8661C22.5 21.4911 21.375 20.3661 20 20.3661Z" fill="#DBDBDB"/>
</svg>
