<svg xmlns="http://www.w3.org/2000/svg" width="18" height="19" viewBox="0 0 18 19"><g><g><path fill="#fff" d="M16.764 3.533a18.56 18.56 0 0 1 0 7.68c-.298 1.3-2.023 2.955-3.392 3.25-1.784.296-3.629.473-5.414.414-.06 0-.119.059-.119.059-.238.236-1.665 1.713-1.665 1.713l-1.785 1.832c-.12.177-.357.059-.357-.118V14.64c0-.059-.06-.118-.12-.118-1.308-.295-3.033-1.95-3.39-3.249a18.562 18.562 0 0 1 0-7.68c.297-1.3 2.022-2.955 3.39-3.25 3.094-.59 6.307-.59 9.4 0 1.37.295 3.095 1.95 3.452 3.19zm-3.51 7.208c-.298-.236-.596-.413-.893-.65-.357-.236-.655-.472-.952-.65-.357-.177-.714-.177-1.011.06-.298.236-.476.708-.893.768-.297 0-.476-.06-.714-.178-1.368-.59-2.26-1.654-2.736-3.013a.57.57 0 0 1 .059-.531c.06-.119.179-.178.238-.237.119-.118.179-.177.297-.236.417-.296.476-.768.238-1.182-.356-.65-.832-1.24-1.308-1.831-.238-.237-.536-.355-.833-.177a2.753 2.753 0 0 0-1.071.768c-.298.354-.595.827-.417 1.3.179.531.417 1.004.655 1.535a14.209 14.209 0 0 0 1.963 2.954c1.428 1.537 3.213 2.6 5.117 3.368.178.06.357.118.595.177l.535-.177c.595-.295.952-.768 1.25-1.359.118-.295.059-.59-.12-.709zm-2.202-3.958v-.236c-.119-1.123-.833-1.655-1.785-1.714-.119 0-.297.118-.297.237 0 .177.06.295.238.354.178 0 .297 0 .476.06l.357.176c.238.178.357.414.416.65.06.118.06.296.06.414.06.177.119.295.357.295-.06 0-.12 0 0 0 .119 0 .178-.118.178-.236zm.476-1.24c.238.472.357 1.004.357 1.535 0 .06.06.177.06.237.059.295.475.236.535 0v-.178-.413-.177c-.179-1.182-.774-2.068-1.844-2.6-.536-.236-1.071-.354-1.666-.414-.179-.059-.298.06-.298.237-.06.177.06.295.238.295.12 0 .298.06.417.06.357.058.654.176.952.295.476.236.892.59 1.249 1.122zM13.67 7.61c0-.473-.06-.886-.12-1.3-.415-2.479-2.494-4.132-4.99-4.194h-.007-.119c-.178 0-.357.177-.297.354.06.236.297.236.476.236.238.06.535.06.833.118 1.844.296 3.39 1.832 3.629 3.723.06.354.119.709.119 1.063 0 .177.119.354.297.354.179 0 .298-.177.179-.354zM8.553 2.116h.007c2.428.058.112 0-.007 0z"/></g></g></svg>